<svg version="1.1" id="图层_1" xmlns="http://www.w3.org/2000/svg" xmlns:xlink="http://www.w3.org/1999/xlink" x="0px" y="0px" viewBox="0 0 1024 1024" style="font-size: 32px;" xml:space="preserve" width="32" height="32">
<style type="text/css">
	.st0{fill:#FDC346;}
	.st1{fill:#FF4397;}
	.st2{fill:#7FAB52;}
	.st3{fill:#660D83;}
	.st4{fill:#579157;}
	.st5{fill:#FF7459;}
	.st6{fill:#7BAD54;}
	.st7{fill:#2D5D5F;}
	.st8{fill:#A4C25E;}
	.st9{fill:#45A1E0;}
	.st10{fill:#79CBFF;}
	.st11{fill:#F57455;}
	.st12{fill:#79CCFF;}
	.st13{fill:#43A2E2;}
	.st14{fill:#FF7558;}
	.st15{fill:#FED049;}
	.st16{fill:#47A1DD;}
	.st17{fill:#FEE48F;}
	.st18{fill:#FF755B;}
	.st19{fill:#F8AF50;}
	.st20{fill:#FF745B;}
	.st21{fill:#FECE46;}
	.st22{fill:#FF9355;}
	.st23{fill:#6FA954;}
	.st24{fill:#FCCD4B;}
</style>
<g transform="matrix( 1, 0, 0, 1, 0,0) ">
	<g>
		<g id="Layer0_13_FILL">
			<path class="st11" d="M525,447.5c-36.2,6.3-71.1,7.8-104.7,4.7L219.7,565.1c33.2,26.8,65.2,48.9,96.1,66.3
				c101.8,57.8,186.5,61.8,254.2,12.2C637.3,562.3,622.3,496.9,525,447.5 M787.8,244.1c-4.7-4.7-10.3-7-16.9-7h-0.2
				c-6.6,0-12.2,2.3-16.9,7s-7,10.3-7,16.9v0.2c0,6.6,2.3,12.2,7,16.9s10.3,7,16.9,7h0.2c6.6,0,12.2-2.3,16.9-7
				c4.7-4.7,7-10.3,7-16.9V261C794.9,254.5,792.5,248.8,787.8,244.1 M916.2,279.8c0-11-1-21.7-3-32.1l-14.8-7.3
				c11.9,34,12.7,65.5,2.3,94.4l7.5-4.2C913.6,314.8,916.2,297.8,916.2,279.8 M913.2,247.7c2,10.4,3,21.1,3,32.1
				c0,18.1-2.7,35-8,50.8l82.2-44.3L913.2,247.7z"></path>
			<path class="st12" d="M709.8,124.4c-25.4,5.2-49,18.2-71,38.9c-6.3,6-12.5,12.7-18.5,19.9c-6.5,11.7-12.1,23-16.9,34
				c-21.1,49.5-23.7,92-7.7,127.5c11.1,24.5,31,45.7,59.7,63.5l0.9-0.7c-5.3-4.2-10.5-8.8-15.5-13.8
				c-31.4-31.4-47.1-69.3-47.1-113.9c0-22.2,3.9-42.9,11.7-61.9c7.9-19,19.7-36.5,35.4-52.2C661.2,145.5,684.2,131.7,709.8,124.4
				 M868.9,165.7l-7.3,5.9c-38.3-27.6-74.1-43.7-107.3-48.3c-15.3-2-30.2-1.6-44.5,1.2c-25.6,7.3-48.6,21-68.9,41.2
				c-15.7,15.8-27.5,33.2-35.4,52.2c-7.8,19-11.7,39.6-11.7,61.9c0,44.5,15.7,82.5,47.1,113.9c5,5,10.2,9.6,15.5,13.8
				c28.3,22.3,61.2,33.5,98.6,33.5c36.1,0,67.9-10.4,95.4-31.2c-0.1-2.1-0.3-4.2-0.5-6.3c21.8-18.2,37.4-37.8,46.9-58.8
				c1.6-3.2,2.9-6.5,4-9.8c10.4-28.9,9.6-60.4-2.3-94.4l14.8,7.3C907.4,216.7,892.6,189.4,868.9,165.7 M771,237.1
				c6.6,0,12.2,2.3,16.9,7c4.7,4.7,7,10.3,7,16.9v0.2c0,6.6-2.3,12.2-7,16.9c-4.7,4.7-10.3,7-16.9,7h-0.2c-6.6,0-12.2-2.3-16.9-7
				s-7-10.3-7-16.9V261c0-6.6,2.3-12.2,7-16.9s10.3-7,16.9-7H771z"></path>
			<path class="st13" d="M315.7,426.2c-51.5-21.9-99.1-56.8-142.9-104.7c-60.9,183.7-13.3,307.6,142.9,371.8
				c10.2,4.1,20.8,8,31.9,11.7c47.1,15.6,92,24.6,134.9,27.2c3,0.2,5.9,0.3,8.9,0.5c118.7,4.4,221.3-41.7,307.9-138.5
				c40.3-45,57.3-106.5,51.1-184.4c-27.4,20.8-59.2,31.2-95.4,31.2c-37.5,0-70.3-11.2-98.6-33.5l-0.9,0.7
				c-45.3,19.2-88.8,32.4-130.5,39.4c97.3,49.4,112.3,114.8,45,196.1c-67.7,49.7-152.4,45.6-254.2-12.2
				c-30.8-17.4-62.9-39.5-96.1-66.3l200.5-112.9C383.8,449,349,440.3,315.7,426.2z"></path>
		</g>
	</g>
	<g>
		<path class="st3" d="M653.1,838.9H334.5c-5,0-9-4-9-9s4-9,9-9h146l1.8-79.7c-0.1,0-0.2,0-0.2,0c-43.5-2.6-89.7-11.9-137.3-27.6
			c-11.2-3.7-22.1-7.7-32.4-11.9c-160.6-66-210.4-194.9-148.1-383c1-3,3.5-5.3,6.7-6c3.1-0.7,6.4,0.4,8.5,2.7
			c42.7,46.7,89.8,81.2,139.8,102.5c32.2,13.7,66.4,22.2,101.6,25.4c0.1,0,0.2,0,0.2,0c32.6,3,67,1.4,102.3-4.6c0.1,0,0.1,0,0.2,0
			c40.7-6.9,83.9-20,128.3-38.9c4.6-1.9,9.9,0.2,11.8,4.8c1.9,4.6-0.2,9.9-4.8,11.8c-37,15.7-73.2,27.6-108.1,35.3
			c38.5,23.7,61.1,51.1,67.5,81.7c7.3,34.9-6.7,73.9-41.5,116c-0.5,0.6-1,1.1-1.6,1.5c-35.4,26-75.8,38.1-120.1,36
			c-43.6-2.1-92-18-143.9-47.4c-31.1-17.6-63.9-40.2-97.3-67.3c-2.3-1.9-3.6-4.8-3.3-7.8c0.2-3,2-5.6,4.6-7.1l176.9-99.5
			c-27.6-4.6-54.4-12.4-80-23.3c-48.3-20.6-93.8-52.7-135.5-95.7C124.2,510.7,170.9,624,319.2,685c9.9,4,20.4,7.9,31.3,11.5
			c46.1,15.3,90.7,24.2,132.7,26.7c2.9,0.2,5.8,0.3,8.7,0.5c5,0.2,9.9,0.3,14.8,0.3c109.2,0,205.3-45.6,285.9-135.7
			c38.4-42.9,54.8-102.7,48.9-177.7c-0.4-5,3.3-9.3,8.3-9.7c4.9-0.4,9.3,3.3,9.7,8.3c6.3,80.1-11.7,144.4-53.5,191.1
			c-43.9,49.1-92.7,85.9-144.9,109.4c-49.7,22.4-103.8,33.2-160.9,32.3l-1.8,79h154.7c5,0,9,4,9,9S658.1,838.9,653.1,838.9z
			 M235.7,566.4c29,22.8,57.4,42,84.4,57.3c97.5,55.3,179.4,59.7,243.6,13.3c30.6-37.3,43.1-70.9,37-100
			c-6.2-29.8-32.1-56.7-77.2-80.1c-34.9,5.7-69,7.2-101.4,4.5L235.7,566.4z M908.4,339.7c-3.2,0-6.3-1.7-7.9-4.7
			c-2.4-4.4-0.7-9.8,3.6-12.2l66.9-36.2l-61.7-30.8c-4.4-2.2-6.3-7.6-4-12.1c2.2-4.4,7.6-6.3,12.1-4l77.2,38.5c3,1.5,4.9,4.5,5,7.9
			c0.1,3.4-1.8,6.5-4.7,8.1l-82.1,44.4C911.3,339.4,909.8,339.7,908.4,339.7z M771,294.1h-0.2c-9,0-16.8-3.3-23.2-9.7
			c-6.4-6.4-9.7-14.2-9.7-23.2V261c0-9,3.3-16.8,9.7-23.2c6.4-6.4,14.2-9.7,23.2-9.7h0.2c9,0,16.8,3.3,23.2,9.7
			c6.4,6.4,9.7,14.2,9.7,23.2v0.2c0,9-3.3,16.8-9.7,23.2C787.8,290.9,780,294.1,771,294.1z M770.7,246.1c-4.2,0-7.5,1.4-10.5,4.4
			c-3,3-4.4,6.3-4.4,10.5v0.2c0,4.2,1.4,7.5,4.4,10.5c3,3,6.3,4.4,10.5,4.4h0.2c4.2,0,7.5-1.4,10.5-4.4c3-3,4.4-6.3,4.4-10.5V261
			c0-4.2-1.4-7.5-4.4-10.5c-3-3-6.3-4.4-10.5-4.4H770.7z"></path>
	</g>
	<g>
		<path class="st3" d="M755,449.9c-39.4,0-74.4-11.9-104.2-35.4c0,0,0,0,0,0c-5.5-4.4-11-9.3-16.2-14.5c-33-33-49.7-73.4-49.7-120.2
			c0-23.3,4.2-45.3,12.4-65.3c8.3-20.1,20.9-38.6,37.3-55.2c21.3-21.2,45.9-35.8,72.9-43.4c0,0,0,0,0,0c14.9-4.2,30.9-6.3,47.5-6.3
			c46.8,0,87.2,16.7,120.2,49.7c24.9,24.9,40.7,54.1,46.9,86.8c0,0,0,0,0,0c2,10.8,3.1,22.1,3.1,33.6c0,18.9-2.8,37-8.3,53.8
			c-8,24.5-22,46.9-41.7,66.5c-6.1,6.2-12.6,11.9-19.3,16.9c0,0,0,0,0,0C826.9,438.9,793,449.9,755,449.9z M662,400.4
			c26.5,20.9,57.8,31.6,93,31.6c34,0,64.2-9.9,90-29.3c6-4.6,11.9-9.7,17.5-15.3c17.7-17.6,30.2-37.5,37.3-59.3
			c4.9-14.9,7.4-31.1,7.4-48.2c0-10.4-0.9-20.6-2.8-30.3c0,0,0,0,0,0c-5.5-29.1-19.6-55.1-41.9-77.4
			c-29.9-29.9-65.1-44.5-107.5-44.5c-15,0-29.3,1.9-42.7,5.6c0,0,0,0,0,0c-24.1,6.8-46,19.8-65.1,38.8c-14.8,14.8-26,31.4-33.4,49.3
			c-7.3,17.8-11,37.5-11,58.4c0,42.4,14.5,77.6,44.5,107.5C652,392,657,396.4,662,400.4z"></path>
	</g>
</g>
</svg>