<svg version="1.1" id="图层_1" xmlns="http://www.w3.org/2000/svg" xmlns:xlink="http://www.w3.org/1999/xlink" x="0px" y="0px" viewBox="0 0 96 96" style="font-size: 32px;" xml:space="preserve" width="32" height="32">
<style type="text/css">
	.st0{fill:#76A4FF;}
	.st1{fill:#0049FF;}
</style>
<g>
	<g>
		<rect x="11" y="32.8" class="st0" width="74" height="14"></rect>
		<path class="st1" d="M85,47.8H11c-0.6,0-1-0.4-1-1v-14c0-0.6,0.4-1,1-1h74c0.6,0,1,0.4,1,1v14C86,47.3,85.6,47.8,85,47.8z
			 M12,45.8h72v-12H12V45.8z"></path>
	</g>
	<g>
		<rect x="27.2" y="60.9" class="st0" width="41.7" height="14.4"></rect>
		<path class="st1" d="M68.8,76.3H27.2c-0.6,0-1-0.4-1-1V60.9c0-0.6,0.4-1,1-1h41.7c0.6,0,1,0.4,1,1v14.4
			C69.8,75.8,69.4,76.3,68.8,76.3z M28.2,74.3h39.7V61.9H28.2V74.3z"></path>
	</g>
	<path class="st1" d="M72.3,88.5H23.7c-3.7,0-6.7-3-6.7-6.7V46.8c0-0.6,0.4-1,1-1c0.6,0,1,0.4,1,1v35.1c0,2.6,2.1,4.7,4.7,4.7h48.6
		c2.6,0,4.7-2.1,4.7-4.7V54.6c0-0.6,0.4-1,1-1c0.6,0,1,0.4,1,1v27.2C79,85.5,76,88.5,72.3,88.5z"></path>
	<path class="st1" d="M85,47.3H11c-0.3,0-0.5-0.2-0.5-0.5v-14c0-0.3,0.2-0.5,0.5-0.5h74c0.3,0,0.5,0.2,0.5,0.5v14
		C85.5,47,85.3,47.3,85,47.3z M11.5,46.3h73v-13h-73V46.3z"></path>
	<g>
		<polygon class="st0" points="36.1,22.8 48.2,40.3 59.9,22.8 51.3,22.8 51.3,8.5 45.1,8.5 45.1,22.8 		"></polygon>
		<path class="st1" d="M48.2,41.3c-0.3,0-0.6-0.2-0.8-0.4L35.2,23.4c-0.2-0.3-0.2-0.7-0.1-1c0.2-0.3,0.5-0.5,0.9-0.5h8V8.5
			c0-0.6,0.4-1,1-1h6.3c0.6,0,1,0.4,1,1v13.3h7.6c0.4,0,0.7,0.2,0.9,0.5c0.2,0.3,0.2,0.7-0.1,1L49,40.8
			C48.8,41.1,48.5,41.3,48.2,41.3C48.2,41.3,48.2,41.3,48.2,41.3z M38,23.8l10.2,14.7l9.9-14.7h-6.7c-0.6,0-1-0.4-1-1V9.5h-4.3v13.3
			c0,0.6-0.4,1-1,1H38z"></path>
	</g>
</g>
</svg>