<svg xmlns:dc="http://purl.org/dc/elements/1.1/" xmlns:cc="http://creativecommons.org/ns#" xmlns:rdf="http://www.w3.org/1999/02/22-rdf-syntax-ns#" xmlns:svg="http://www.w3.org/2000/svg" xmlns="http://www.w3.org/2000/svg" viewBox="0 0 400 400" height="32" width="32" xml:space="preserve" id="svg2" version="1.1" style="font-size: 32px; color: rgb(19, 34, 122);"><metadata id="metadata8" style="fill: rgb(19, 34, 122);"><rdf:rdf style="fill: rgb(19, 34, 122);"><cc:work rdf:about="" style="fill: rgb(19, 34, 122);"><dc:format style="fill: rgb(19, 34, 122);">image/svg+xml</dc:format><dc:type rdf:resource="http://purl.org/dc/dcmitype/StillImage" style="fill: rgb(19, 34, 122);"></dc:type></cc:work></rdf:rdf></metadata><defs id="defs6" style="fill: rgb(19, 34, 122);"></defs><g transform="matrix(1.3333333,0,0,-1.3333333,0,400)" id="g10" style="fill: rgb(19, 34, 122);"><g transform="scale(0.1)" id="g12" style="fill: rgb(19, 34, 122);"><path id="path14" style="fill: rgb(19, 34, 122); fill-opacity: 1; fill-rule: nonzero; stroke: none;" d="m 1790.33,1899.99 v 0 -814.31 c 54.99,29.99 103.56,71.39 142.11,119.95 62.17,78.65 98.6,178.63 98.6,287.17 0,108.54 -36.43,208.61 -98.6,287.16 -38.55,48.57 -87.12,89.97 -142.11,120.03 z m -976.475,256.37 v 0 l 810.065,620.78 c 17.12,15.72 40.67,24.93 65.68,24.93 55.73,0 100.73,-44.98 100.73,-100.64 v -645.79 -22.09 c 93.54,-38.62 175.02,-100.72 237.12,-179.27 77.9,-99.33 124.27,-225.73 124.27,-361.48 0,-137.15 -46.37,-262.15 -124.27,-361.39 -62.1,-78.65 -143.58,-140.75 -237.12,-179.289 V 929.961 284.25 c 0,-21.441 -5.72,-42.859 -19.98,-61.449 -34.31,-43.59 -97.87,-52.879 -141.46,-18.571 L 813.855,829.238 h -534.976 -2.856 c -56.468,0 -99.976,44.981 -99.976,100.723 v 1122.829 2.85 c 0,54.34 43.508,100.72 99.976,100.72 h 537.832 z m -26.41,-202.08 v 0 H 376.012 v -924.34 h 411.433 v 924.34 z m 1344.315,409.95 v 0 c -47.84,28.6 -63.57,90.04 -34.31,137.16 27.15,48.56 89.32,63.55 137.14,35.68 180.01,-108.54 330.03,-262.14 433.6,-445.66 99.98,-176.42 157.85,-381.43 157.85,-598.61 0,-217.17 -57.87,-421.45 -157.85,-599.999 -103.57,-182.129 -254.32,-335.731 -433.6,-442.891 -47.82,-29.262 -109.99,-13.519 -137.14,34.309 -29.26,47.179 -13.53,108.543 34.31,137.152 150.01,90.039 275.75,218.551 362.13,371.418 83.6,147.161 130.71,317.881 130.71,500.011 0,182.13 -47.11,352.84 -130.71,500.01 -86.38,152.87 -212.12,281.46 -362.13,371.42 z M 908.863,1975.69 v -965.7 l 5.707,-3.59 675.04,-517.861 v 441.422 1125.679 441.5 L 908.863,1975.69 v 0 0"></path></g></g></svg>