<svg xmlns:dc="http://purl.org/dc/elements/1.1/" xmlns:cc="http://creativecommons.org/ns#" xmlns:rdf="http://www.w3.org/1999/02/22-rdf-syntax-ns#" xmlns:svg="http://www.w3.org/2000/svg" xmlns="http://www.w3.org/2000/svg" viewBox="0 0 400 400" height="32" width="32" xml:space="preserve" id="svg2" version="1.1" style="font-size: 32px; color: rgb(19, 34, 122);"><metadata id="metadata8" style="fill: rgb(19, 34, 122);"><rdf:rdf style="fill: rgb(19, 34, 122);"><cc:work rdf:about="" style="fill: rgb(19, 34, 122);"><dc:format style="fill: rgb(19, 34, 122);">image/svg+xml</dc:format><dc:type rdf:resource="http://purl.org/dc/dcmitype/StillImage" style="fill: rgb(19, 34, 122);"></dc:type></cc:work></rdf:rdf></metadata><defs id="defs6" style="fill: rgb(19, 34, 122);"></defs><g transform="matrix(1.3333333,0,0,-1.3333333,0,400)" id="g10" style="fill: rgb(19, 34, 122);"><g transform="scale(0.1)" id="g12" style="fill: rgb(19, 34, 122);"><path id="path14" style="fill: rgb(19, 34, 122); fill-opacity: 1; fill-rule: nonzero; stroke: none;" d="m 2336.27,1011.74 v 0 c -55.73,42.51 -134.23,70.38 -223,70.38 -88.72,0 -167.21,-27.87 -221.51,-70.38 -48.38,-37.412 -79.92,-88.041 -79.92,-141.592 0,-53.558 31.54,-103.429 79.92,-141.597 54.3,-44.012 132.79,-69.621 221.51,-69.621 88.77,0 167.27,25.609 223,69.621 48.45,36.75 77.07,86.621 77.74,138.668 v 0.75 2.179 2.934 c -0.67,52.129 -29.29,101.246 -77.74,138.658 v 0 z M 1102.47,727.879 v 0 c -54.23,43.262 -134.228,70.383 -222.259,70.383 -88.711,0 -166.449,-27.121 -222.262,-70.383 -48.375,-37.399 -78.418,-88.02 -78.418,-141.578 0,-53.571 30.043,-104.172 78.418,-141.59 55.813,-43.262 133.551,-70.379 222.262,-70.379 88.031,0 168.029,27.117 222.259,70.379 48.44,37.418 78.49,88.019 78.49,141.59 0,53.558 -30.05,104.179 -78.49,141.578 z M 880.211,1005.88 v 0 c 112.289,0 216.399,-31.552 300.749,-82.181 v 1500.851 5.84 0 l 0.75,2.18 v 0 2.18 0.75 2.18 0 l 0.75,4.43 v 0 l 0.75,2.93 v 0 l 0.68,2.93 v 0 1.5 l 0.75,1.43 v 1.5 l 1.5,0.69 v 1.5 l 1.43,3.67 v 0 c 1.5,7.28 4.43,11.72 6.61,16.82 l 0.75,0.76 0.75,1.5 v 0 l 1.43,1.43 1.5,4.42 0.76,1.44 h 0.67 l 2.25,2.92 1.43,1.5 v 0.75 l 1.5,0.68 v 0.75 l 1.44,1.5 1.5,0.75 v 0 l 1.42,1.43 5.18,5.86 v 1.5 h 1.43 l 1.5,1.43 1.43,0.75 0.75,0.76 4.43,3.67 h 1.43 v 0.68 l 1.5,0.75 1.43,0.75 3.68,2.93 h 0.75 l 3.68,1.44 0.69,1.5 c 4.42,2.92 8.85,4.42 13.2,5.85 h 0.76 c 5.1,1.5 9.54,2.93 14.64,3.68 l 1227.2,288.28 c 52.8,12.47 107.11,-19.08 121.76,-70.45 l 1.5,-1.43 c 2.92,-11.04 4.35,-22.01 4.35,-35.23 V 870.148 866.461 c -0.67,-118.82 -61.59,-224.43 -157.66,-300 -90.21,-71.129 -214.97,-115.129 -349.94,-115.129 -133.48,0 -258.17,44 -349.88,115.129 v -0.75 c -97.58,76.32 -158.42,184.18 -158.42,304.437 0,120.332 60.84,228.112 158.42,304.432 91.71,70.38 214.97,114.39 349.88,114.39 112.96,0 217.14,-30.04 300.74,-81.42 V 2286.63 L 1387.82,2045.98 v -1459.679 -4.43 -1.43 c -2.18,-118.152 -60.84,-223 -158.41,-297.82 -90.21,-70.461 -213.47,-115.16 -349.199,-115.16 -134.231,0 -257.414,44.699 -349.125,115.16 -97.574,75.57 -158.414,183.348 -158.414,303.68 0,120.25 60.84,228.109 158.414,304.437 91.711,70.364 214.894,115.142 349.125,115.142 z m 507.609,1167.79 1026.19,241.32 v 169.38 L 1387.82,2343.79 v -170.12 0"></path></g></g></svg>