<svg xmlns:dc="http://purl.org/dc/elements/1.1/" xmlns:cc="http://creativecommons.org/ns#" xmlns:rdf="http://www.w3.org/1999/02/22-rdf-syntax-ns#" xmlns:svg="http://www.w3.org/2000/svg" xmlns="http://www.w3.org/2000/svg" viewBox="0 0 400 400" height="32" width="32" xml:space="preserve" id="svg2" version="1.1" style="font-size: 32px; color: rgb(216, 31, 6);"><metadata id="metadata8" style="fill: rgb(216, 31, 6);"><rdf:rdf style="fill: rgb(216, 31, 6);"><cc:work rdf:about="" style="fill: rgb(216, 31, 6);"><dc:format style="fill: rgb(216, 31, 6);">image/svg+xml</dc:format><dc:type rdf:resource="http://purl.org/dc/dcmitype/StillImage" style="fill: rgb(216, 31, 6);"></dc:type></cc:work></rdf:rdf></metadata><defs id="defs6" style="fill: rgb(216, 31, 6);"></defs><g transform="matrix(1.3333333,0,0,-1.3333333,0,400)" id="g10" style="fill: rgb(216, 31, 6);"><g transform="scale(0.1)" id="g12" style="fill: rgb(216, 31, 6);"><path id="path14" style="fill: rgb(216, 31, 6); fill-opacity: 1; fill-rule: nonzero; stroke: none;" d="m 1957.62,1904.86 v 0 -824.04 c 55.66,30.34 104.07,72.24 143.15,121.39 63.59,79.58 100.44,180.75 100.44,290.59 0,109.84 -36.85,211.1 -100.44,290.59 -39.08,49.15 -87.49,91.05 -143.15,121.47 z m -988.069,259.43 v 0 l 818.939,628.21 c 18.06,15.9 41.89,25.23 67.2,25.23 56.41,0 101.93,-45.53 101.93,-101.85 v -653.51 -22.35 c 94.67,-39.09 177.13,-101.93 239.97,-181.42 78.84,-100.52 125.83,-228.42 125.83,-365.8 0,-138.79 -46.99,-265.28 -125.83,-365.71 -62.84,-79.58 -145.3,-142.418 -239.97,-181.442 V 923.23 269.801 c 0,-21.68 -7.25,-43.371 -20.2,-62.172 -34.72,-44.117 -99.04,-53.52 -143.16,-18.797 L 969.551,821.309 h -541.442 -2.875 c -57.082,0 -102.671,45.523 -102.671,101.921 v 1136.25 2.89 c 0,54.99 45.589,101.92 102.671,101.92 h 544.317 z m -27.535,-204.5 v 0 h -415.61 v -935.38 h 415.61 v 935.38 z m 1632.914,839.87 v 0 c 24.57,23.93 62.18,23.93 86.75,0 23.1,-24.57 23.1,-62.1 0,-86.01 l -194.44,-192.96 194.44,-195.19 c 23.1,-23.09 23.1,-61.43 0,-85.27 -24.57,-23.9 -62.18,-23.9 -86.75,0 l -193.7,193.71 -193.05,-193.71 c -23.82,-23.9 -62.84,-23.9 -86.74,0 -23.83,23.84 -23.83,62.18 0,85.27 l 193.77,195.19 -193.77,192.96 c -23.83,23.17 -23.83,61.44 0,86.01 23.9,23.93 62.92,23.93 86.74,0 l 193.05,-192.21 193.7,192.21 z M 1064.22,1981.47 v -977.25 l 7.19,-3.64 681.63,-524.049 v 446.699 1139.14 446.77 l -687.41,-527.67 h -1.41 v 0"></path></g></g></svg>