<svg version="1.1" xmlns="http://www.w3.org/2000/svg" xmlns:xlink="http://www.w3.org/1999/xlink" x="0px" y="0px" viewBox="0 0 1024 1024" style="font-size: 64px;" xml:space="preserve" width="64" height="64">
<g id="设计">
	<g>
		<g>
			<path style="fill:#FFE585;" d="M731.184,226.045C717.882,132.105,678.508,64,632,64c-37.92,0-71.095,45.279-89.266,112.915
				C532.578,176.313,522.331,176,512,176s-20.578,0.313-30.734,0.915C463.095,109.279,429.92,64,392,64
				c-46.508,0-85.882,68.105-99.184,162.045C156.259,293.204,64,421.173,64,568c0,216.496,200.576,392,448,392s448-175.504,448-392
				C960,421.173,867.741,293.204,731.184,226.045z"></path>
			<path style="fill:#6E6E96;" d="M935.598,410.193c-23.27-48.139-56.548-91.342-98.912-128.41
				c-28.499-24.936-60.158-46.237-94.536-63.688c-5.249-33.822-13.929-64.885-25.66-91.053C694.796,78.651,664.791,52,632,52
				s-62.796,26.651-84.489,75.042c-5.187,11.571-9.775,24.104-13.739,37.404C526.542,164.153,519.284,164,512,164
				s-14.542,0.153-21.772,0.446c-3.963-13.3-8.551-25.832-13.739-37.404C454.796,78.651,424.791,52,392,52
				s-62.796,26.651-84.489,75.042c-11.73,26.168-20.411,57.232-25.66,91.053c-34.378,17.45-66.038,38.751-94.536,63.688
				c-42.364,37.068-75.643,80.271-98.912,128.41C64.247,460.163,52,513.257,52,568s12.247,107.837,36.402,157.807
				c23.27,48.139,56.548,91.342,98.912,128.41c42.247,36.966,91.415,65.979,146.139,86.232C390.022,961.385,450.094,972,512,972
				s121.978-10.615,178.547-31.551c54.724-20.253,103.892-49.266,146.139-86.232c42.364-37.068,75.643-80.271,98.912-128.41
				C959.753,675.837,972,622.743,972,568S959.753,460.163,935.598,410.193z M569.411,136.86C586.749,98.183,609.562,76,632,76
				s45.251,22.183,62.589,60.86c9.008,20.095,16.09,43.401,21.047,68.791c-8.231-3.568-16.585-6.952-25.089-10.1
				c-42.327-15.665-86.614-25.55-132.164-29.536C561.654,155.711,565.334,145.955,569.411,136.86z M329.411,136.86
				C346.749,98.183,369.562,76,392,76s45.251,22.183,62.589,60.86c4.077,9.095,7.758,18.851,11.028,29.156
				c-45.55,3.986-89.837,13.871-132.164,29.536c-8.505,3.147-16.858,6.532-25.089,10.1
				C313.321,180.26,320.403,156.955,329.411,136.86z M512,948C271.589,948,76,777.533,76,568
				c0-134.624,80.743-253.118,202.235-320.638c8.336-4.633,16.861-9.027,25.568-13.168c50.867-24.196,107.841-39.816,168.347-44.616
				c8.044-0.638,16.151-1.083,24.314-1.334C501.621,188.085,506.799,188,512,188s10.379,0.085,15.537,0.243
				c8.163,0.25,16.27,0.696,24.314,1.334c60.506,4.801,117.48,20.42,168.347,44.616c8.706,4.141,17.232,8.536,25.568,13.168
				C867.257,314.882,948,433.376,948,568C948,777.533,752.411,948,512,948z"></path>
		</g>
		<circle style="fill:#6E6E96;" cx="264" cy="520" r="40"></circle>
		<circle style="fill:#6E6E96;" cx="760" cy="520" r="40"></circle>
		<ellipse style="opacity:0.5;fill:#FF99BB;" cx="208" cy="608" rx="80" ry="32"></ellipse>
		<ellipse style="opacity:0.5;fill:#FF99BB;" cx="816" cy="608" rx="80" ry="32"></ellipse>
		<g>
			<path style="fill:#6E6E96;" d="M872,460H632c-28.673,0-52-23.327-52-52s23.327-52,52-52c6.627,0,12,5.373,12,12s-5.373,12-12,12
				c-15.439,0-28,12.561-28,28s12.561,28,28,28h240c6.627,0,12,5.373,12,12S878.627,460,872,460z"></path>
			<path style="fill:#6E6E96;" d="M384,460H144c-6.627,0-12-5.373-12-12s5.373-12,12-12h240c15.439,0,28-12.561,28-28
				s-12.561-28-28-28c-6.627,0-12-5.373-12-12s5.373-12,12-12c28.673,0,52,23.327,52,52S412.673,460,384,460z"></path>
			<path style="fill:#6E6E96;" d="M640,780H384c-6.627,0-12-5.373-12-12s5.373-12,12-12h256c6.627,0,12,5.373,12,12
				S646.627,780,640,780z"></path>
		</g>
	</g>
</g>
<g id="参考线_1_">
</g>
</svg>