<svg version="1.1" id="图层_1" xmlns="http://www.w3.org/2000/svg" xmlns:xlink="http://www.w3.org/1999/xlink" x="0px" y="0px" viewBox="0 0 1024 1024" style="font-size: 32px;" xml:space="preserve" width="32" height="32">
<style type="text/css">
	.st0{fill:#66CCFF;}
	.st1{fill:#EA7E7E;}
	.st2{fill:#FFFFFF;}
	.st3{fill:#AE5858;}
	.st4{fill:#333333;}
	.st5{fill:#F9ADBB;}
	.st6{fill:#F9C8D1;}
	.st7{fill:#FFC835;}
	.st8{fill:#FFECFA;}
	.st9{fill:#F37E21;}
	.st10{fill:#241E21;}
	.st11{fill:#B0773D;}
	.st12{fill:#8F9292;}
	.st13{fill:#E3EAEF;}
	.st14{fill:#FFDE5C;}
	.st15{fill:#B64F29;}
	.st16{fill:#FFC63C;}
	.st17{fill:#FFC713;}
	.st18{fill:#FFF8FD;}
	.st19{fill:#FFBECF;}
	.st20{fill:#E07C99;}
	.st21{fill:#53B947;}
	.st22{fill:#E98FB9;}
	.st23{fill:#33CCFF;}
	.st24{fill:#FFF227;}
	.st25{fill:#D5050D;}
	.st26{fill:#F4921E;}
	.st27{fill:#90E3FF;}
	.st28{fill:#F1BEC2;}
	.st29{fill:#E8989E;}
	.st30{fill:#AAA7A9;}
	.st31{fill:#FFC01A;}
	.st32{fill:#FEFEFE;}
	.st33{fill:#FCE4E8;}
	.st34{fill:#95D946;}
	.st35{fill:#FF6600;}
	.st36{fill:#A8F073;}
	.st37{fill:#F7D0E0;}
	.st38{fill:#58D7FF;}
	.st39{fill:#B0B3B3;}
	.st40{fill:#DFD9DC;}
	.st41{fill:#8894E9;}
	.st42{fill:#A0A0FF;}
	.st43{fill:#FF982C;}
	.st44{fill:#FACC12;}
	.st45{fill:#A66829;}
	.st46{fill:#FEFED7;}
	.st47{fill:#F3AA3C;}
</style>
<g transform="matrix( 1, 0, 0, 1, 0,0) ">
	<g>
		<g id="Layer1_5_FILL">
			<path class="st14" d="M204.6,562c12.6-32.5,31.9-62.2,57.8-89.1c-41.6-62.1-70.7-121.2-87.2-177.2
				C103.1,372.7,67.1,464.8,67.1,571.7c0,112.1,39.6,207.7,118.8,286.9c52.6,52.6,112.3,87.7,179.3,105.4L245.4,786.9
				c-37.7-38.9-56.5-84.5-56.5-136.7C188.8,618.6,194.1,589.2,204.6,562 M759.9,284.7c0,0-0.1-0.1-0.1-0.1
				c-16.1,58.3-45.7,121.5-88.6,189.7c18.4,19.5,33.4,40.7,45,63.6l138.3,176.5c13.5-36.7,21.4-75.7,23.8-117
				c0.4-8.5,0.6-17,0.6-25.6C878.8,459.7,839.1,364,759.9,284.7 M472.9,165.9c-48.9,0-94.7,7.5-137.4,22.6
				c25.7,54.2,44.3,123.3,55.7,207.3c23.5-6.1,48.4-9.1,74.7-9.1c24.4,0,47.6,2.6,69.6,7.8c15.5-87.1,35.8-157.3,61-210.5
				C557.9,171.9,516.7,165.9,472.9,165.9z"></path>
			<path class="st16" d="M716.1,537.8c4.9,9.5,9.2,19.2,12.8,29.3c9.2,25.3,13.7,53,13.7,83.1c0,62.9-25,114.3-75.1,154.3
				c-50.1,39.8-114.9,61.6-194.5,65.4c-79.7,3.7-147-16.2-201.9-59.7c-9.4-7.5-18-15.2-25.8-23.2l119.8,177.2
				c34.1,9,70,13.5,107.8,13.5c112.1,0,207.7-39.6,286.9-118.9c43.3-43.2,74.8-91.4,94.5-144.4L716.1,537.8 M465.6,738.7
				c-0.3,0-0.7,0-1.2,0v44.2c1.7,0.2,3.5,0.3,5.4,0.3v-44.4C468.5,738.7,467.1,738.7,465.6,738.7z"></path>
			<path class="st18" d="M560.5,401.6c-8.1-2.8-16.4-5.2-24.9-7.1c-22-5.2-45.2-7.8-69.6-7.8c-26.4,0-51.3,3-74.7,9.1
				c-9.8,2.5-19.3,5.5-28.5,9.1c-28.2,10.7-54.2,26.2-78,46.6c-2.5,2.1-5,4.3-7.4,6.6c-5.2,4.8-10.2,9.7-14.9,14.8
				c-25.9,26.9-45.2,56.6-57.8,89.1c-10.5,27.2-15.8,56.6-15.8,88.2c0,52.2,18.8,97.7,56.5,136.7c7.8,8,16.4,15.8,25.8,23.2
				c54.9,43.5,122.2,63.4,201.9,59.7c79.5-3.8,144.4-25.6,194.5-65.4c50.1-39.9,75.1-91.3,75.1-154.3c0-30.1-4.6-57.8-13.7-83.1
				c-3.7-10-7.9-19.8-12.8-29.3c-11.6-22.8-26.6-44-45-63.6c-5.1-5.6-10.6-11-16.3-16.2c-3.7-3.3-7.3-6.5-10.9-9.5
				C618.5,427.6,590.7,411.9,560.5,401.6 M616.8,688.4c0-7.4,1.8-13.6,5.4-18.6c0-0.2,0.1-0.3,0.3-0.4c0.9-1.5,2.1-2.7,3.3-3.3
				c3.3-2.8,6.9-4.1,11-3.9c5.6,0.3,10.2,3.3,13.9,8.7c4,5.7,6,12.3,6,19.9c0,7.6-2,14-6,19.3c-3.7,5-8.3,7.3-13.9,6.9
				c-5.5-0.3-10.2-3.3-14.3-8.7C618.7,702.6,616.8,696,616.8,688.4 M279,669.3c0.9-1.5,2.1-2.7,3.3-3.3c3.3-2.8,6.9-4.1,11-3.9
				c5.5,0.3,10.1,3.3,13.9,8.7c4,5.7,6,12.3,6,19.9c0,7.6-2,13.9-6,19.1c0,0.1,0,0.1,0,0.1c-0.8,1.1-1.6,2.1-2.6,3
				c-2.5,2.2-5.2,3.5-8.2,3.9c-1,0.2-2,0.2-3.1,0.1c-3.7-0.2-7-1.5-9.9-4c-1.5-1.3-3-2.9-4.4-4.8c-3.9-5.7-5.8-12.3-5.8-19.9
				c0-7.4,1.8-13.6,5.4-18.6C278.7,669.6,278.8,669.4,279,669.3 M465.6,704.5c10.2,0,18.9,1.6,26.1,4.9c2.5,1.2,4.6,2.4,6.3,3.7
				c3.1,2.6,4.6,5.4,4.6,8.5c0,2.3-0.6,4.5-1.8,6.6c-1.3,2-4,4-8.2,6.2c-4.1,2-10.4,3.3-19,4c-1.2,0.2-2.4,0.3-3.7,0.4v44.4
				c1.3-0.1,2.5-0.2,3.7-0.3c8.3-1.1,16.3-5.1,24-11.8c-20.3,28.8-39.9,28.8-58.8,0c8,6.1,15.8,9.9,23.4,11.4
				c0.7,0.1,1.5,0.2,2.3,0.4v-44.2c-0.8,0-1.5,0-2.3,0c-7.8-0.3-14.7-1.8-20.7-4.2c-0.7-0.3-1.4-0.6-2.1-0.9
				c-7.2-3.3-10.8-7.2-10.8-11.9c0-4.7,3.6-8.8,10.8-12.2c1.9-0.8,3.8-1.5,5.8-2.1C451.2,705.5,458,704.5,465.6,704.5 M335.4,764
				c0,9.1-3.2,16.8-9.6,23.2c-6.4,6.4-14.2,9.6-23.2,9.6c-9,0-16.7-3.2-23.2-9.6c-6.4-6.4-9.6-14.2-9.6-23.2c0-9,3.2-16.7,9.6-23.2
				c6.5-6.4,14.3-9.6,23.2-9.6c9.1,0,16.8,3.2,23.2,9.6C332.2,747.3,335.4,755,335.4,764 M669.7,764c0,9.1-3.2,16.8-9.6,23.2
				c-6.4,6.4-14.2,9.6-23.2,9.6c-9,0-16.7-3.2-23.2-9.6c-6.4-6.4-9.6-14.2-9.6-23.2c0-9,3.2-16.7,9.6-23.2
				c6.5-6.4,14.3-9.6,23.2-9.6c9.1,0,16.8,3.2,23.2,9.6C666.5,747.3,669.7,755,669.7,764 M722.2,63.1c-2.7,0-5.1,0.3-7.4,0.8
				c-0.9,0.1-1.7,0.3-2.4,0.5c-1,0.3-2,0.6-3,1c-1.3,0.3-2.6,0.8-4,1.3c-42.9,15.6-79.2,54.7-108.8,117.3
				c-25.2,53.2-45.5,123.4-61,210.5c8.5,1.9,16.8,4.2,24.9,7.1c20.9-89.1,46-156.8,75.1-203.1c8.5-13.3,17.3-24.9,26.5-34.7
				c3.2-3.4,6.5-6.6,9.9-9.5c5.3-3.5,11.3-5.3,17.9-5.3c9.1,0,16.9,3.2,23.4,9.6c5.1,5.2,8.3,11.2,9.5,17.9c0.2,1.7,0.3,3.5,0.3,5.3
				c2,22.1,1.4,44.8-1.8,68.3c-8.3,61.1-34.1,127.3-77.3,198.4c3.6,3,7.2,6.2,10.9,9.5c5.7,5.2,11.2,10.6,16.3,16.2
				c42.9-68.2,72.5-131.4,88.6-189.7c20-72.1,19.5-136.7-1.5-193.7c-0.4-1.7-0.9-3.3-1.5-4.8c-1.9-4.4-4.6-8.4-8.1-12.1
				c-3.2-3.2-6.6-5.6-10.1-7.3C733.4,64.3,728.1,63.1,722.2,63.1 M228.7,66.7c-2.4-0.9-4.9-1.7-7.6-2.3c-3.1-0.9-6.3-1.3-9.5-1.3
				c-5.7,0-11.1,1.2-16.1,3.6c-3.8,1.7-7.2,4.2-10.4,7.3c-2.9,3-5.2,6.3-6.9,9.8c-1.3,2.7-2.3,5.5-3.1,8.5
				c-21.4,62.5-21.3,130.3,0.1,203.3c16.5,56,45.6,115.1,87.2,177.2c4.7-5.1,9.7-10,14.9-14.8c2.5-2.2,5-4.4,7.4-6.6
				c-38.7-76.5-63.5-139.7-74.4-189.7c-6.8-31.3-8.1-57.4-4-78.2c1.5-7.1,3.2-12.6,5.1-16.4c1.5-3,3.6-5.8,6.2-8.5
				c6.6-6.4,14.4-9.6,23.4-9.6c6,0,11.4,1.4,16.3,4.2c2.5,1.4,4.8,3.2,7.1,5.4c3.9,3.9,6.7,7.1,8.5,9.4c8.8,11.7,17,23.8,24.5,36.2
				c35.2,58.1,56.9,125,65.2,200.6c9.2-3.6,18.8-6.6,28.5-9.1c-11.5-84-30.1-153.1-55.7-207.3c-26-54.9-59.4-94.4-100.1-118.5
				C233.4,68.7,231.1,67.7,228.7,66.7z"></path>
			<path class="st6" d="M660.1,787.2c6.4-6.4,9.6-14.2,9.6-23.2c0-9-3.2-16.7-9.6-23.2c-6.4-6.4-14.2-9.6-23.2-9.6
				c-9,0-16.7,3.2-23.2,9.6c-6.4,6.5-9.6,14.3-9.6,23.2c0,9.1,3.2,16.8,9.6,23.2c6.5,6.4,14.3,9.6,23.2,9.6
				C645.9,796.9,653.6,793.7,660.1,787.2 M325.8,787.2c6.4-6.4,9.6-14.2,9.6-23.2c0-9-3.2-16.7-9.6-23.2c-6.4-6.4-14.2-9.6-23.2-9.6
				c-9,0-16.7,3.2-23.2,9.6c-6.4,6.5-9.6,14.3-9.6,23.2c0,9.1,3.2,16.8,9.6,23.2c6.5,6.4,14.3,9.6,23.2,9.6
				C311.6,796.9,319.3,793.7,325.8,787.2z"></path>
			<path class="st1" d="M469.9,783.1c-1.9,0-3.7-0.1-5.4-0.3c-0.9-0.2-1.6-0.3-2.3-0.4c-7.6-1.5-15.4-5.4-23.4-11.4
				c18.9,28.8,38.5,28.8,58.8,0c-7.7,6.8-15.7,10.7-24,11.8C472.4,783,471.1,783.1,469.9,783.1 M276.2,680.3c0-4.1,0.9-7.6,2.6-10.5
				c-3.6,5.1-5.4,11.3-5.4,18.6c0,7.6,1.9,14.3,5.8,19.9c1.4,1.9,2.8,3.5,4.4,4.8c2.9,2.5,6.2,3.8,9.9,4c1.1,0.1,2.1,0,3.1-0.1
				c3-0.4,5.7-1.7,8.2-3.9c0.9-0.9,1.8-1.8,2.6-3c0,0,0-0.1,0-0.1c4-5.2,6-11.6,6-19.1c0-7.6-2-14.3-6-19.9
				c-3.8-5.5-8.4-8.4-13.9-8.7c-4.1-0.3-7.8,1-11,3.9c1-0.7,2.1-1,3.3-1c2.6,0,4.8,1.5,6.7,4.4c1.9,3.1,2.8,6.7,2.8,10.9
				s-0.9,7.9-2.8,11c-1.9,3.1-4.1,4.6-6.7,4.5c-2.6-0.2-4.8-1.8-6.7-4.8C277.1,688.1,276.2,684.5,276.2,680.3 M619.6,680.3
				c0-4.1,0.9-7.6,2.6-10.5c-3.6,5.1-5.4,11.3-5.4,18.6c0,7.6,1.9,14.3,5.8,19.9c4,5.5,8.8,8.4,14.3,8.7c5.6,0.3,10.2-2,13.9-6.9
				c4-5.2,6-11.6,6-19.3c0-7.6-2-14.3-6-19.9c-3.7-5.5-8.3-8.4-13.9-8.7c-4.1-0.3-7.8,1-11,3.9c1-0.7,2.1-1,3.3-1
				c2.6,0,4.8,1.5,6.7,4.4c1.9,3.1,2.8,6.7,2.8,10.9s-0.9,7.9-2.8,11c-1.9,3.1-4.1,4.6-6.7,4.5c-2.6-0.2-4.8-1.8-6.7-4.8
				C620.6,688.1,619.6,684.5,619.6,680.3 M662.1,163.8c-9.1,9.8-18,21.4-26.5,34.7c-29.2,46.3-54.2,114-75.1,203.1
				c30.1,10.4,57.9,26,83.4,47c43.3-71.1,69-137.3,77.3-198.4c3.2-23.5,3.8-46.3,1.8-68.3c0-1.8-0.1-3.6-0.3-5.3
				c-1.2-6.7-4.4-12.6-9.5-17.9c-6.5-6.4-14.3-9.6-23.4-9.6c-6.6,0-12.5,1.8-17.9,5.3C668.6,157.2,665.3,160.4,662.1,163.8
				 M217.7,158.7c-2.6,2.7-4.6,5.5-6.2,8.5c-2,3.9-3.7,9.3-5.1,16.4c-4.2,20.9-2.8,46.9,4,78.2c10.9,50,35.6,113.2,74.4,189.7
				c23.8-20.4,49.8-35.9,78-46.6c-8.3-75.6-30.1-142.5-65.2-200.6c-7.5-12.5-15.7-24.5-24.5-36.2c-1.8-2.3-4.6-5.4-8.5-9.4
				c-2.2-2.2-4.6-4-7.1-5.4c-4.9-2.8-10.3-4.2-16.3-4.2C232.1,149.1,224.3,152.3,217.7,158.7z"></path>
			<path class="st4" d="M491.7,709.4c-7.2-3.3-15.9-4.9-26.1-4.9c-7.6,0-14.4,0.9-20.4,2.8c-2,0.6-3.9,1.3-5.8,2.1
				c-7.2,3.4-10.8,7.5-10.8,12.2c0,4.7,3.6,8.7,10.8,11.9c0.7,0.3,1.4,0.6,2.1,0.9c6,2.5,12.9,3.9,20.7,4.2c0.8,0,1.5,0,2.3,0
				c0.4,0,0.8,0,1.2,0c1.5,0,2.9,0,4.2,0c1.3-0.1,2.5-0.2,3.7-0.4c8.6-0.7,14.9-2,19-4c4.2-2.1,6.9-4.2,8.2-6.2
				c1.2-2.1,1.8-4.2,1.8-6.6c0-3.1-1.5-5.9-4.6-8.5C496.3,711.9,494.2,710.6,491.7,709.4z"></path>
			<path class="st10" d="M278.7,669.7c-1.7,2.9-2.6,6.4-2.6,10.5c0,4.2,0.9,7.8,2.8,10.8c1.9,3,4.1,4.6,6.7,4.8
				c2.6,0.1,4.8-1.4,6.7-4.5c1.9-3.2,2.8-6.8,2.8-11s-0.9-7.8-2.8-10.9c-1.9-2.9-4.1-4.4-6.7-4.4c-1.2,0-2.3,0.3-3.3,1
				c-1.3,0.7-2.4,1.8-3.3,3.3C278.8,669.4,278.7,669.6,278.7,669.7 M622.2,669.7c-1.7,2.9-2.6,6.4-2.6,10.5c0,4.2,0.9,7.8,2.8,10.8
				c1.9,3,4.1,4.6,6.7,4.8c2.6,0.1,4.8-1.4,6.7-4.5c1.9-3.2,2.8-6.8,2.8-11s-0.9-7.8-2.8-10.9c-1.9-2.9-4.1-4.4-6.7-4.4
				c-1.2,0-2.3,0.3-3.3,1c-1.3,0.7-2.4,1.8-3.3,3.3C622.3,669.4,622.2,669.6,622.2,669.7z"></path>
		</g>
	</g>
	<g>
		<path class="st4" d="M454.9,876.3c-73,0-135.9-20.6-187.4-61.4c-9.6-7.6-18.4-15.6-26.3-23.8c0,0,0,0,0,0
			c-38.6-39.9-58.2-87.3-58.2-140.8c0-32.2,5.5-62.6,16.2-90.4c12.3-31.7,31-61.2,55.7-87.6c-40.4-60.9-69-119.7-85.2-174.8
			c0,0,0,0,0,0c-21.7-73.8-21.8-143.4-0.2-206.8c0.9-3.3,2-6.4,3.4-9.4c2-4.1,4.7-7.9,8-11.3c3.7-3.7,7.8-6.6,12.2-8.6
			c5.7-2.8,12-4.2,18.6-4.2c3.7,0,7.4,0.5,11,1.5c2.9,0.7,5.7,1.5,8.3,2.5c2.7,1,5.3,2.3,7.6,3.6c41.5,24.7,76,65.4,102.4,121.1
			c0,0,0,0,0,0c25.1,53,43.8,121.1,55.3,202.5c22-5.1,45.4-7.7,69.7-7.7c22.5,0,44.3,2.2,64.8,6.6c15.4-84.5,35.7-153.7,60.4-205.8
			c0,0,0,0,0,0c30.2-63.7,67.9-104.2,112.1-120.3c1.3-0.5,2.7-0.9,4-1.3c1.1-0.5,2.2-0.8,3.3-1.1c1-0.3,2.1-0.5,3.1-0.7
			c2.6-0.6,5.5-0.8,8.4-0.8c6.7,0,13,1.4,18.8,4.2c4.2,2,8.1,4.8,11.8,8.5c0,0,0.1,0.1,0.1,0.1c4,4.2,7.1,8.8,9.3,13.8
			c0,0,0,0.1,0,0.1c0.7,1.6,1.3,3.4,1.7,5.3c21.3,57.9,21.8,124.2,1.6,197.1c0,0,0,0,0,0c-15.9,57.5-45.1,120.5-86.9,187.4
			c17.3,18.9,31.7,39.6,42.8,61.5c0,0,0,0,0,0c4.9,9.6,9.3,19.7,13.1,30c9.4,25.8,14.1,54.5,14.1,85.2c0,64.6-26,118-77.4,158.9
			c-50.9,40.4-117.4,62.9-197.9,66.7C467.1,876.1,461,876.3,454.9,876.3z M249.7,782.7c7.6,7.8,16,15.4,25.2,22.7
			c53.5,42.4,120,62,197.9,58.4c77.9-3.7,142.1-25.2,191-64.1c48.3-38.5,72.9-88.8,72.9-149.6c0-29.3-4.5-56.6-13.4-81.1
			c-3.6-9.8-7.8-19.4-12.5-28.6c0,0,0,0,0,0c-11.3-22.2-26.1-43.1-44-62.2c0,0,0,0,0-0.1c-5-5.4-10.4-10.7-15.9-15.8
			c-3.6-3.3-7.2-6.4-10.7-9.3c-24.7-20.4-52.1-35.9-81.4-45.9c-0.1,0-0.1,0-0.2-0.1c-7.9-2.7-16-5-24.1-6.8c0,0-0.1,0-0.1,0
			c-21.4-5.1-44.4-7.7-68.2-7.7c-25.7,0-50.4,3-73.2,8.9c0,0,0,0,0,0c0,0,0,0,0,0c-9.5,2.4-18.8,5.4-27.8,8.9c0,0,0,0-0.1,0
			c-27.4,10.4-53,25.7-76.2,45.6c0,0,0,0,0,0c-2.4,2.1-4.9,4.3-7.3,6.5c-5,4.6-9.9,9.5-14.5,14.4c0,0-0.1,0.1-0.1,0.1
			c-25.3,26.2-44.3,55.5-56.5,87.1c-10.2,26.4-15.4,55.4-15.4,86.1C194.8,700.5,213.3,745.1,249.7,782.7
			C249.7,782.7,249.7,782.7,249.7,782.7z M651.7,447.3c2.4,2,4.8,4.2,7.2,6.3c3.9,3.5,7.7,7.2,11.3,10.9
			c40.2-64.9,68.4-126,83.8-181.6c0,0,0,0,0,0c19.6-70.5,19.1-134.5-1.4-190c-0.1-0.2-0.1-0.4-0.2-0.6c-0.4-1.4-0.8-2.7-1.2-3.9
			c-1.6-3.7-3.9-7.1-6.9-10.2c-2.7-2.6-5.5-4.7-8.4-6.1c-4.2-2-8.7-3-13.6-3c-2.2,0-4.3,0.2-6.1,0.6c-0.2,0.1-0.5,0.1-0.7,0.1
			c-0.4,0-0.8,0.1-1.1,0.2c-0.1,0-0.3,0.1-0.4,0.1c-0.7,0.2-1.3,0.4-1.9,0.7c-0.3,0.1-0.6,0.3-0.9,0.3c-1.1,0.3-2.2,0.7-3.4,1.1
			c-41.2,15-76.7,53.4-105.5,114.2c0,0,0,0,0,0c-24.3,51.3-44.3,119.7-59.5,203.4c4.6,1.1,9.2,2.4,13.7,3.8
			c20.7-86.2,45.7-153,74.5-198.4c8.6-13.6,17.7-25.6,27.1-35.6c3.3-3.6,6.8-6.9,10.4-10c0.2-0.2,0.4-0.3,0.6-0.4
			c6.3-4.2,13.4-6.3,21.2-6.3c10.7,0,19.9,3.8,27.6,11.4c6,6.1,9.8,13.2,11.2,21.1c0,0.2,0,0.3,0.1,0.5c0.2,1.8,0.3,3.7,0.3,5.6
			c2,22.3,1.4,45.7-1.9,69.5C719,311.4,693.6,377.4,651.7,447.3z M181.1,294c15.7,53.3,43.3,110.2,82.2,169.3
			c3.2-3.3,6.6-6.5,10-9.6c1.4-1.2,2.7-2.4,4-3.6c-37.6-74.8-62.1-137.6-72.8-186.9c-7-32-8.3-59.1-4-80.7c1.6-7.7,3.4-13.6,5.7-18
			c1.8-3.5,4.2-6.9,7.2-9.9c0,0,0.1-0.1,0.1-0.1c7.7-7.5,17-11.3,27.6-11.3c7,0,13.5,1.7,19.3,5c2.9,1.6,5.8,3.8,8.4,6.4
			c4.1,4.2,7,7.4,9,9.9c8.9,11.9,17.3,24.3,24.9,36.9c34.3,56.6,56.2,122.3,65.2,195.4c5.5-1.9,11.1-3.7,16.8-5.3
			c-11.4-80.7-29.7-148.1-54.5-200.3c0,0,0,0,0,0c-25.4-53.5-58.3-92.5-97.7-115.9c-1.7-1-3.7-1.9-5.9-2.8c-2.2-0.9-4.4-1.5-6.8-2.1
			c-0.1,0-0.2,0-0.3-0.1c-2.5-0.7-5.2-1.1-7.9-1.1c-4.9,0-9.3,1-13.4,3c0,0-0.1,0-0.1,0.1c-3.1,1.4-6,3.5-8.6,6.1
			c-2.4,2.5-4.4,5.2-5.8,8.1c-1.1,2.3-2,4.7-2.7,7.3c0,0.2-0.1,0.3-0.1,0.4C159.9,155.3,160,222.5,181.1,294
			C181,294,181,294,181.1,294z M222,162.9c-2.1,2.2-3.8,4.6-5.1,7c-1.7,3.3-3.3,8.4-4.6,14.9c-4,19.9-2.6,45.4,4,75.8
			c10.4,47.7,34.1,108.8,70.5,181.5c21.4-17.4,44.7-31.2,69.5-41.1c-8.6-72.5-30-137.6-63.9-193.5c-7.4-12.3-15.5-24.3-24.2-35.8
			c-1.6-2-4.3-5-8-8.8c-1.8-1.8-3.7-3.2-5.7-4.3c0,0-0.1,0-0.1-0.1c-4-2.3-8.3-3.4-13.3-3.4C233.7,155.1,227.5,157.6,222,162.9z
			 M567.6,397.7c26.6,9.8,51.7,23.8,74.7,41.9c40.5-67.9,65.1-131.9,73-190.2c3.1-23,3.7-45.5,1.8-67c0-0.2,0-0.4,0-0.5
			c0-1.5-0.1-3-0.2-4.4c-1-5.4-3.6-10.2-7.8-14.5c-5.3-5.3-11.6-7.8-19.1-7.8c-5.3,0-10,1.3-14.3,4.1c-3.1,2.7-6.2,5.6-9.1,8.8
			c-8.9,9.5-17.5,20.9-25.7,33.9C612.7,246.3,588,312.2,567.6,397.7z M467.7,798.6c-0.1,0-0.3,0-0.4,0c-11.8-0.2-23-8.4-33.5-24.3
			c-1.6-2.4-1.2-5.7,0.9-7.7c2.1-2,5.4-2.2,7.7-0.4c5.5,4.2,10.8,7.2,16,9v-30.8c-7.1-0.6-13.5-2.1-19.2-4.4
			c-0.8-0.3-1.6-0.7-2.4-1.1c-9.4-4.3-14.2-10.1-14.2-17.4c0-7.2,4.8-13.1,14.2-17.6c0.1,0,0.2-0.1,0.3-0.1c2-0.8,4.2-1.6,6.3-2.2
			c6.5-2,14-3.1,22.2-3.1c11,0,20.6,1.8,28.5,5.4c0,0,0.1,0,0.1,0.1c2.8,1.4,5.3,2.8,7.3,4.3c0.1,0.1,0.2,0.1,0.2,0.2
			c5.6,4.7,6.8,9.7,6.8,13.1c0,3.4-0.9,6.6-2.6,9.6c-0.1,0.1-0.1,0.2-0.2,0.3c-1.9,2.9-5.3,5.5-10.5,8.2c0,0-0.1,0-0.1,0.1
			c-4.5,2.2-10.8,3.6-19.3,4.4v32.2c6-1.4,12-4.7,17.8-9.8c2.3-2,5.7-2,8,0c2.3,2,2.6,5.4,0.9,7.9
			C491.1,790.7,479.7,798.6,467.7,798.6z M464.5,732.7h5.2c1.1-0.1,2.1-0.2,3.1-0.3c0.1,0,0.2,0,0.4,0c9.6-0.8,14.5-2.3,16.8-3.4
			c4.2-2.1,5.5-3.5,5.8-4c0.6-1.1,0.9-2.2,0.9-3.4c0-0.4,0-1.8-2.3-3.8c-1.4-1-3.1-2-5.1-3c-6.4-2.9-14.3-4.3-23.5-4.3
			c-7,0-13.2,0.9-18.6,2.5c-1.8,0.5-3.5,1.1-5.1,1.8c-2.8,1.3-7.2,3.9-7.2,6.7c0,2.8,4.5,5.3,7.3,6.5c0.1,0,0.1,0.1,0.2,0.1
			c0.5,0.2,1,0.5,1.5,0.6c0.1,0,0.1,0,0.2,0.1c5.3,2.2,11.5,3.5,18.5,3.8H464.5z M637.9,723c-0.5,0-0.9,0-1.4,0
			c-7.3-0.5-13.6-4.2-18.7-11.2c0-0.1-0.1-0.1-0.1-0.2c-4.5-6.6-6.8-14.5-6.8-23.3c0-8.3,2-15.5,6-21.4c0.3-0.5,0.6-1,1-1.5
			c1.3-1.9,2.8-3.3,4.5-4.4c4.4-3.6,9.4-5.3,14.9-4.9c5.1,0.3,12.5,2.5,18.4,11.3c4.7,6.6,7.1,14.5,7.1,23.3
			c0,8.9-2.4,16.6-7.3,22.9C650.9,719.8,644.8,723,637.9,723z M627.5,704.8c2.9,4,6.1,6,9.7,6.2c3.5,0.2,6.2-1.2,8.7-4.5
			c0,0,0-0.1,0.1-0.1c3.2-4.2,4.8-9.3,4.8-15.6c0-6.4-1.6-11.8-4.9-16.4c0,0-0.1-0.1-0.1-0.1c-0.8-1.2-1.7-2.2-2.5-3
			c0.9,2.8,1.4,5.8,1.4,9c0,5.3-1.2,10-3.7,14.1c-3.9,6.4-8.7,7.5-12,7.4c-0.1,0-0.1,0-0.2,0c-1-0.1-2.1-0.3-3.3-0.7
			C626,702.4,626.7,703.6,627.5,704.8z M627.3,672.9c-1.1,2-1.7,4.4-1.7,7.4c0,3.1,0.6,5.6,1.9,7.6c0.7,1.1,1.3,1.8,1.8,1.9
			c0.1-0.1,0.6-0.5,1.3-1.6c1.3-2.2,1.9-4.8,1.9-7.9c0-3.1-0.6-5.6-1.9-7.7c-0.6-0.9-1.2-1.5-1.6-1.6c-0.2,0.1-0.4,0.2-0.5,0.3
			c-0.3,0.2-0.7,0.6-1,1.2C627.5,672.6,627.4,672.7,627.3,672.9z M294.3,723c-0.4,0-0.9,0-1.3,0c-4.9-0.2-9.5-2-13.4-5.4
			c-1.9-1.6-3.7-3.5-5.3-5.8c0,0-0.1-0.1-0.1-0.1c-4.5-6.6-6.8-14.5-6.8-23.3c0-8.3,2-15.5,6-21.4c0.3-0.5,0.6-1,1-1.5
			c1.3-1.9,2.8-3.3,4.5-4.4c4.4-3.6,9.4-5.3,14.9-4.9c7.4,0.5,13.6,4.3,18.4,11.3c4.7,6.6,7.1,14.4,7.1,23.3
			c0,8.7-2.3,16.2-6.9,22.4c-0.1,0.1-0.1,0.2-0.2,0.3c-1,1.5-2.2,2.8-3.4,3.9c0,0-0.1,0.1-0.1,0.1c-3.4,2.9-7.2,4.7-11.3,5.3
			C296.3,723,295.3,723,294.3,723z M284,704.8c1.1,1.4,2.2,2.7,3.3,3.6c1.9,1.7,4,2.5,6.3,2.6c0.7,0,1.3,0,1.9-0.1c0,0,0.1,0,0.1,0
			c1.8-0.2,3.4-1,5-2.4c0.5-0.5,1-1,1.5-1.6c0.1-0.2,0.3-0.4,0.4-0.6c3.2-4.1,4.7-9.2,4.7-15.5c0-6.4-1.6-11.8-4.9-16.4
			c-0.9-1.3-1.7-2.3-2.5-3.1c0.9,2.8,1.4,5.8,1.4,9c0,5.3-1.2,10-3.7,14.1c-3.9,6.4-8.7,7.5-12,7.4c-0.1,0-0.1,0-0.2,0
			c-1-0.1-2.1-0.3-3.3-0.7C282.5,702.4,283.2,703.6,284,704.8z M301.6,708.1C301.6,708.1,301.6,708.1,301.6,708.1
			C301.6,708.1,301.6,708.1,301.6,708.1z M302.4,706.5C302.4,706.5,302.4,706.5,302.4,706.5C302.4,706.5,302.4,706.5,302.4,706.5z
			 M302.5,706.4C302.5,706.5,302.4,706.5,302.5,706.4C302.4,706.5,302.5,706.5,302.5,706.4z M283.9,672.9c-1.1,2-1.7,4.4-1.7,7.4
			c0,3.1,0.6,5.6,1.9,7.6c0.7,1.1,1.3,1.8,1.8,1.9c0.1-0.1,0.6-0.5,1.3-1.6c1.3-2.2,1.9-4.8,1.9-7.9c0-3.1-0.6-5.6-1.9-7.7
			c-0.6-0.9-1.2-1.5-1.6-1.6c-0.2,0.1-0.3,0.2-0.5,0.3c-0.3,0.2-0.7,0.6-1,1.2C284,672.6,284,672.7,283.9,672.9z"></path>
	</g>
</g>
</svg>