<?xml version="1.0" encoding="UTF-8"?>
<svg xmlns="http://www.w3.org/2000/svg" xmlns:xlink="http://www.w3.org/1999/xlink" width="512pt" height="512pt" viewBox="0 0 512 512" version="1.1">
<g id="surface1">
<path style=" stroke:none;fill-rule:nonzero;fill:rgb(100%,87.058824%,36.078431%);fill-opacity:1;" d="M 102.300781 281 C 108.601562 264.75 118.25 249.898438 131.199219 236.449219 C 110.398438 205.398438 95.851562 175.851562 87.601562 147.851562 C 51.550781 186.351562 33.550781 232.398438 33.550781 285.851562 C 33.550781 341.898438 53.351562 389.699219 92.949219 429.300781 C 119.25 455.601562 149.101562 473.148438 182.601562 482 L 122.699219 393.449219 C 103.851562 374 94.449219 351.199219 94.449219 325.101562 C 94.398438 309.300781 97.050781 294.601562 102.300781 281 M 379.949219 142.351562 C 379.949219 142.351562 379.898438 142.300781 379.898438 142.300781 C 371.851562 171.449219 357.050781 203.050781 335.601562 237.148438 C 344.800781 246.898438 352.300781 257.5 358.101562 268.949219 L 427.25 357.199219 C 434 338.851562 437.949219 319.351562 439.148438 298.699219 C 439.351562 294.449219 439.449219 290.199219 439.449219 285.898438 C 439.398438 229.851562 419.550781 182 379.949219 142.351562 M 236.449219 82.949219 C 212 82.949219 189.101562 86.699219 167.75 94.25 C 180.601562 121.351562 189.898438 155.898438 195.601562 197.898438 C 207.351562 194.851562 219.800781 193.351562 232.949219 193.351562 C 245.148438 193.351562 256.75 194.648438 267.75 197.25 C 275.5 153.699219 285.648438 118.601562 298.25 92 C 278.949219 85.949219 258.351562 82.949219 236.449219 82.949219 Z M 236.449219 82.949219 "/>
<path style=" stroke:none;fill-rule:nonzero;fill:rgb(100%,77.647059%,23.529412%);fill-opacity:1;" d="M 358.050781 268.898438 C 360.5 273.648438 362.648438 278.5 364.449219 283.550781 C 369.050781 296.199219 371.300781 310.050781 371.300781 325.101562 C 371.300781 356.550781 358.800781 382.25 333.75 402.25 C 308.699219 422.148438 276.300781 433.050781 236.5 434.949219 C 196.648438 436.800781 163 426.851562 135.550781 405.101562 C 130.851562 401.351562 126.550781 397.5 122.648438 393.5 L 182.550781 482.101562 C 199.601562 486.601562 217.550781 488.851562 236.449219 488.851562 C 292.5 488.851562 340.300781 469.050781 379.898438 429.398438 C 401.550781 407.800781 417.300781 383.699219 427.148438 357.199219 L 358.050781 268.898438 M 232.800781 369.351562 C 232.648438 369.351562 232.449219 369.351562 232.199219 369.351562 L 232.199219 391.449219 C 233.050781 391.550781 233.949219 391.601562 234.898438 391.601562 L 234.898438 369.398438 C 234.25 369.351562 233.550781 369.351562 232.800781 369.351562 Z M 232.800781 369.351562 "/>
<path style=" stroke:none;fill-rule:nonzero;fill:rgb(100%,97.254902%,99.215686%);fill-opacity:1;" d="M 280.25 200.800781 C 276.199219 199.398438 272.050781 198.199219 267.800781 197.25 C 256.800781 194.648438 245.199219 193.351562 233 193.351562 C 219.800781 193.351562 207.351562 194.851562 195.648438 197.898438 C 190.75 199.148438 186 200.648438 181.398438 202.449219 C 167.300781 207.800781 154.300781 215.550781 142.398438 225.75 C 141.148438 226.800781 139.898438 227.898438 138.699219 229.050781 C 136.101562 231.449219 133.601562 233.898438 131.25 236.449219 C 118.300781 249.898438 108.648438 264.75 102.351562 281 C 97.101562 294.601562 94.449219 309.300781 94.449219 325.101562 C 94.449219 351.199219 103.851562 373.949219 122.699219 393.449219 C 126.601562 397.449219 130.898438 401.351562 135.601562 405.050781 C 163.050781 426.800781 196.699219 436.75 236.550781 434.898438 C 276.300781 433 308.75 422.101562 333.800781 402.199219 C 358.851562 382.25 371.351562 356.550781 371.351562 325.050781 C 371.351562 310 369.050781 296.148438 364.5 283.5 C 362.648438 278.5 360.550781 273.601562 358.101562 268.851562 C 352.300781 257.449219 344.800781 246.851562 335.601562 237.050781 C 333.050781 234.25 330.300781 231.550781 327.449219 228.949219 C 325.601562 227.300781 323.800781 225.699219 322 224.199219 C 309.25 213.800781 295.351562 205.949219 280.25 200.800781 M 308.398438 344.199219 C 308.398438 340.5 309.300781 337.398438 311.101562 334.898438 C 311.101562 334.800781 311.148438 334.75 311.25 334.699219 C 311.699219 333.949219 312.300781 333.351562 312.898438 333.050781 C 314.550781 331.648438 316.351562 331 318.398438 331.101562 C 321.199219 331.25 323.5 332.75 325.351562 335.449219 C 327.351562 338.300781 328.351562 341.601562 328.351562 345.398438 C 328.351562 349.199219 327.351562 352.398438 325.351562 355.050781 C 323.5 357.550781 321.199219 358.699219 318.398438 358.5 C 315.648438 358.351562 313.300781 356.851562 311.25 354.148438 C 309.351562 351.300781 308.398438 348 308.398438 344.199219 M 139.5 334.648438 C 139.949219 333.898438 140.550781 333.300781 141.148438 333 C 142.800781 331.601562 144.601562 330.949219 146.648438 331.050781 C 149.398438 331.199219 151.699219 332.699219 153.601562 335.398438 C 155.601562 338.25 156.601562 341.550781 156.601562 345.351562 C 156.601562 349.148438 155.601562 352.300781 153.601562 354.898438 C 153.601562 354.949219 153.601562 354.949219 153.601562 354.949219 C 153.199219 355.5 152.800781 356 152.300781 356.449219 C 151.050781 357.550781 149.699219 358.199219 148.199219 358.398438 C 147.699219 358.5 147.199219 358.5 146.648438 358.449219 C 144.800781 358.351562 143.148438 357.699219 141.699219 356.449219 C 140.949219 355.800781 140.199219 355 139.5 354.050781 C 137.550781 351.199219 136.601562 347.898438 136.601562 344.101562 C 136.601562 340.398438 137.5 337.300781 139.300781 334.800781 C 139.351562 334.800781 139.398438 334.699219 139.5 334.648438 M 232.800781 352.25 C 237.898438 352.25 242.25 353.050781 245.851562 354.699219 C 247.101562 355.300781 248.148438 355.898438 249 356.550781 C 250.550781 357.851562 251.300781 359.25 251.300781 360.800781 C 251.300781 361.949219 251 363.050781 250.398438 364.101562 C 249.75 365.101562 248.398438 366.101562 246.300781 367.199219 C 244.25 368.199219 241.101562 368.851562 236.800781 369.199219 C 236.199219 369.300781 235.601562 369.351562 234.949219 369.398438 L 234.949219 391.601562 C 235.601562 391.550781 236.199219 391.5 236.800781 391.449219 C 240.949219 390.898438 244.949219 388.898438 248.800781 385.550781 C 238.648438 399.949219 228.851562 399.949219 219.398438 385.550781 C 223.398438 388.601562 227.300781 390.5 231.101562 391.25 C 231.449219 391.300781 231.851562 391.351562 232.25 391.449219 L 232.25 369.351562 C 231.851562 369.351562 231.5 369.351562 231.101562 369.351562 C 227.199219 369.199219 223.75 368.449219 220.75 367.25 C 220.398438 367.101562 220.050781 366.949219 219.699219 366.800781 C 216.101562 365.148438 214.300781 363.199219 214.300781 360.851562 C 214.300781 358.5 216.101562 356.449219 219.699219 354.75 C 220.648438 354.351562 221.601562 354 222.601562 353.699219 C 225.601562 352.75 229 352.25 232.800781 352.25 M 167.699219 382 C 167.699219 386.550781 166.101562 390.398438 162.898438 393.601562 C 159.699219 396.800781 155.800781 398.398438 151.300781 398.398438 C 146.800781 398.398438 142.949219 396.800781 139.699219 393.601562 C 136.5 390.398438 134.898438 386.5 134.898438 382 C 134.898438 377.5 136.5 373.648438 139.699219 370.398438 C 142.949219 367.199219 146.851562 365.601562 151.300781 365.601562 C 155.851562 365.601562 159.699219 367.199219 162.898438 370.398438 C 166.101562 373.648438 167.699219 377.5 167.699219 382 M 334.851562 382 C 334.851562 386.550781 333.25 390.398438 330.050781 393.601562 C 326.851562 396.800781 322.949219 398.398438 318.449219 398.398438 C 313.949219 398.398438 310.101562 396.800781 306.851562 393.601562 C 303.648438 390.398438 302.050781 386.5 302.050781 382 C 302.050781 377.5 303.648438 373.648438 306.851562 370.398438 C 310.101562 367.199219 314 365.601562 318.449219 365.601562 C 323 365.601562 326.851562 367.199219 330.050781 370.398438 C 333.25 373.648438 334.851562 377.5 334.851562 382 M 361.101562 31.550781 C 359.75 31.550781 358.550781 31.699219 357.398438 31.949219 C 356.949219 32 356.550781 32.101562 356.199219 32.199219 C 355.699219 32.351562 355.199219 32.5 354.699219 32.699219 C 354.050781 32.851562 353.398438 33.101562 352.699219 33.351562 C 331.25 41.148438 313.101562 60.699219 298.300781 92 C 285.699219 118.601562 275.550781 153.699219 267.800781 197.25 C 272.050781 198.199219 276.199219 199.351562 280.25 200.800781 C 290.699219 156.25 303.25 122.398438 317.800781 99.25 C 322.050781 92.601562 326.449219 86.800781 331.050781 81.898438 C 332.648438 80.199219 334.300781 78.601562 336 77.148438 C 338.648438 75.398438 341.648438 74.5 344.949219 74.5 C 349.5 74.5 353.398438 76.101562 356.648438 79.300781 C 359.199219 81.898438 360.800781 84.898438 361.398438 88.25 C 361.5 89.101562 361.550781 90 361.550781 90.898438 C 362.550781 101.949219 362.25 113.300781 360.648438 125.050781 C 356.5 155.601562 343.601562 188.699219 322 224.25 C 323.800781 225.75 325.601562 227.351562 327.449219 229 C 330.300781 231.601562 333.050781 234.300781 335.601562 237.101562 C 357.050781 203 371.851562 171.398438 379.898438 142.25 C 389.898438 106.199219 389.648438 73.898438 379.148438 45.398438 C 378.949219 44.550781 378.699219 43.75 378.398438 43 C 377.449219 40.800781 376.101562 38.800781 374.351562 36.949219 C 372.75 35.351562 371.050781 34.148438 369.300781 33.300781 C 366.699219 32.148438 364.050781 31.550781 361.101562 31.550781 M 114.351562 33.351562 C 113.148438 32.898438 111.898438 32.5 110.550781 32.199219 C 109 31.75 107.398438 31.550781 105.800781 31.550781 C 102.949219 31.550781 100.25 32.148438 97.75 33.351562 C 95.851562 34.199219 94.148438 35.449219 92.550781 37 C 91.101562 38.5 89.949219 40.148438 89.101562 41.898438 C 88.449219 43.25 87.949219 44.648438 87.550781 46.148438 C 76.851562 77.398438 76.898438 111.300781 87.601562 147.800781 C 95.851562 175.800781 110.398438 205.351562 131.199219 236.398438 C 133.550781 233.851562 136.050781 231.398438 138.648438 229 C 139.898438 227.898438 141.148438 226.800781 142.351562 225.699219 C 123 187.449219 110.601562 155.851562 105.148438 130.851562 C 101.75 115.199219 101.101562 102.148438 103.148438 91.75 C 103.898438 88.199219 104.75 85.449219 105.699219 83.550781 C 106.449219 82.050781 107.5 80.648438 108.800781 79.300781 C 112.101562 76.101562 116 74.5 120.5 74.5 C 123.5 74.5 126.199219 75.199219 128.648438 76.601562 C 129.898438 77.300781 131.050781 78.199219 132.199219 79.300781 C 134.148438 81.25 135.550781 82.851562 136.449219 84 C 140.851562 89.851562 144.949219 95.898438 148.699219 102.101562 C 166.300781 131.148438 177.148438 164.601562 181.300781 202.398438 C 185.898438 200.601562 190.699219 199.101562 195.550781 197.851562 C 189.800781 155.851562 180.5 121.300781 167.699219 94.199219 C 154.699219 66.75 138 47 117.648438 34.949219 C 116.699219 34.351562 115.550781 33.851562 114.351562 33.351562 Z M 114.351562 33.351562 "/>
<path style=" stroke:none;fill-rule:nonzero;fill:rgb(97.647059%,78.431373%,81.960784%);fill-opacity:1;" d="M 330.050781 393.601562 C 333.25 390.398438 334.851562 386.5 334.851562 382 C 334.851562 377.5 333.25 373.648438 330.050781 370.398438 C 326.851562 367.199219 322.949219 365.601562 318.449219 365.601562 C 313.949219 365.601562 310.101562 367.199219 306.851562 370.398438 C 303.648438 373.648438 302.050781 377.550781 302.050781 382 C 302.050781 386.550781 303.648438 390.398438 306.851562 393.601562 C 310.101562 396.800781 314 398.398438 318.449219 398.398438 C 322.949219 398.449219 326.800781 396.851562 330.050781 393.601562 M 162.898438 393.601562 C 166.101562 390.398438 167.699219 386.5 167.699219 382 C 167.699219 377.5 166.101562 373.648438 162.898438 370.398438 C 159.699219 367.199219 155.800781 365.601562 151.300781 365.601562 C 146.800781 365.601562 142.949219 367.199219 139.699219 370.398438 C 136.5 373.648438 134.898438 377.550781 134.898438 382 C 134.898438 386.550781 136.5 390.398438 139.699219 393.601562 C 142.949219 396.800781 146.851562 398.398438 151.300781 398.398438 C 155.800781 398.449219 159.648438 396.851562 162.898438 393.601562 Z M 162.898438 393.601562 "/>
<path style=" stroke:none;fill-rule:nonzero;fill:rgb(91.764706%,49.411765%,49.411765%);fill-opacity:1;" d="M 234.949219 391.550781 C 234 391.550781 233.101562 391.5 232.25 391.398438 C 231.800781 391.300781 231.449219 391.25 231.101562 391.199219 C 227.300781 390.449219 223.398438 388.5 219.398438 385.5 C 228.851562 399.898438 238.648438 399.898438 248.800781 385.5 C 244.949219 388.898438 240.949219 390.851562 236.800781 391.398438 C 236.199219 391.5 235.550781 391.550781 234.949219 391.550781 M 138.101562 340.148438 C 138.101562 338.101562 138.550781 336.351562 139.398438 334.898438 C 137.601562 337.449219 136.699219 340.550781 136.699219 344.199219 C 136.699219 348 137.648438 351.351562 139.601562 354.148438 C 140.300781 355.101562 141 355.898438 141.800781 356.550781 C 143.25 357.800781 144.898438 358.449219 146.75 358.550781 C 147.300781 358.601562 147.800781 358.550781 148.300781 358.5 C 149.800781 358.300781 151.148438 357.648438 152.398438 356.550781 C 152.851562 356.101562 153.300781 355.648438 153.699219 355.050781 C 153.699219 355.050781 153.699219 355 153.699219 355 C 155.699219 352.398438 156.699219 349.199219 156.699219 345.449219 C 156.699219 341.648438 155.699219 338.300781 153.699219 335.5 C 151.800781 332.75 149.5 331.300781 146.75 331.148438 C 144.699219 331 142.851562 331.648438 141.25 333.101562 C 141.75 332.75 142.300781 332.601562 142.898438 332.601562 C 144.199219 332.601562 145.300781 333.351562 146.25 334.800781 C 147.199219 336.351562 147.648438 338.148438 147.648438 340.25 C 147.648438 342.351562 147.199219 344.199219 146.25 345.75 C 145.300781 347.300781 144.199219 348.050781 142.898438 348 C 141.601562 347.898438 140.5 347.101562 139.550781 345.601562 C 138.550781 344.050781 138.101562 342.25 138.101562 340.148438 M 309.800781 340.148438 C 309.800781 338.101562 310.25 336.351562 311.101562 334.898438 C 309.300781 337.449219 308.398438 340.550781 308.398438 344.199219 C 308.398438 348 309.351562 351.351562 311.300781 354.148438 C 313.300781 356.898438 315.699219 358.351562 318.449219 358.5 C 321.25 358.648438 323.550781 357.5 325.398438 355.050781 C 327.398438 352.449219 328.398438 349.25 328.398438 345.398438 C 328.398438 341.601562 327.398438 338.25 325.398438 335.449219 C 323.550781 332.699219 321.25 331.25 318.449219 331.101562 C 316.398438 330.949219 314.550781 331.601562 312.949219 333.050781 C 313.449219 332.699219 314 332.550781 314.601562 332.550781 C 315.898438 332.550781 317 333.300781 317.949219 334.75 C 318.898438 336.300781 319.351562 338.101562 319.351562 340.199219 C 319.351562 342.300781 318.898438 344.148438 317.949219 345.699219 C 317 347.25 315.898438 348 314.601562 347.949219 C 313.300781 347.851562 312.199219 347.050781 311.25 345.550781 C 310.300781 344.050781 309.800781 342.25 309.800781 340.148438 M 331.050781 81.898438 C 326.5 86.800781 322.050781 92.601562 317.800781 99.25 C 303.199219 122.398438 290.699219 156.25 280.25 200.800781 C 295.300781 206 309.199219 213.800781 321.949219 224.300781 C 343.601562 188.75 356.449219 155.648438 360.601562 125.101562 C 362.199219 113.351562 362.5 101.949219 361.5 90.949219 C 361.5 90.050781 361.449219 89.148438 361.351562 88.300781 C 360.75 84.949219 359.148438 82 356.601562 79.351562 C 353.351562 76.148438 349.449219 74.550781 344.898438 74.550781 C 341.601562 74.550781 338.648438 75.449219 335.949219 77.199219 C 334.300781 78.601562 332.648438 80.199219 331.050781 81.898438 M 108.851562 79.351562 C 107.550781 80.699219 106.550781 82.101562 105.75 83.601562 C 104.75 85.550781 103.898438 88.25 103.199219 91.800781 C 101.101562 102.25 101.800781 115.25 105.199219 130.898438 C 110.648438 155.898438 123 187.5 142.398438 225.75 C 154.300781 215.550781 167.300781 207.800781 181.398438 202.449219 C 177.25 164.648438 166.351562 131.199219 148.800781 102.148438 C 145.050781 95.898438 140.949219 89.898438 136.550781 84.050781 C 135.648438 82.898438 134.25 81.351562 132.300781 79.351562 C 131.199219 78.25 130 77.351562 128.75 76.648438 C 126.300781 75.25 123.601562 74.550781 120.601562 74.550781 C 116.050781 74.550781 112.148438 76.148438 108.851562 79.351562 Z M 108.851562 79.351562 "/>
<path style=" stroke:none;fill-rule:nonzero;fill:rgb(20%,20%,20%);fill-opacity:1;" d="M 245.851562 354.699219 C 242.25 353.050781 237.898438 352.25 232.800781 352.25 C 229 352.25 225.601562 352.699219 222.601562 353.648438 C 221.601562 353.949219 220.648438 354.300781 219.699219 354.699219 C 216.101562 356.398438 214.300781 358.449219 214.300781 360.800781 C 214.300781 363.148438 216.101562 365.148438 219.699219 366.75 C 220.050781 366.898438 220.398438 367.050781 220.75 367.199219 C 223.75 368.449219 227.199219 369.148438 231.101562 369.300781 C 231.5 369.300781 231.851562 369.300781 232.25 369.300781 C 232.449219 369.300781 232.648438 369.300781 232.851562 369.300781 C 233.601562 369.300781 234.300781 369.300781 234.949219 369.300781 C 235.601562 369.25 236.199219 369.199219 236.800781 369.101562 C 241.101562 368.75 244.25 368.101562 246.300781 367.101562 C 248.398438 366.050781 249.75 365 250.398438 364 C 251 362.949219 251.300781 361.898438 251.300781 360.699219 C 251.300781 359.148438 250.550781 357.75 249 356.449219 C 248.148438 355.949219 247.101562 355.300781 245.851562 354.699219 Z M 245.851562 354.699219 "/>
<path style=" stroke:none;fill-rule:nonzero;fill:rgb(14.117647%,11.764706%,12.941176%);fill-opacity:1;" d="M 139.351562 334.851562 C 138.5 336.300781 138.050781 338.050781 138.050781 340.101562 C 138.050781 342.199219 138.5 344 139.449219 345.5 C 140.398438 347 141.5 347.800781 142.800781 347.898438 C 144.101562 347.949219 145.199219 347.199219 146.148438 345.648438 C 147.101562 344.050781 147.550781 342.25 147.550781 340.148438 C 147.550781 338.050781 147.101562 336.25 146.148438 334.699219 C 145.199219 333.25 144.101562 332.5 142.800781 332.5 C 142.199219 332.5 141.648438 332.648438 141.148438 333 C 140.5 333.351562 139.949219 333.898438 139.5 334.648438 C 139.398438 334.699219 139.351562 334.800781 139.351562 334.851562 M 311.101562 334.851562 C 310.25 336.300781 309.800781 338.050781 309.800781 340.101562 C 309.800781 342.199219 310.25 344 311.199219 345.5 C 312.148438 347 313.25 347.800781 314.550781 347.898438 C 315.851562 347.949219 316.949219 347.199219 317.898438 345.648438 C 318.851562 344.050781 319.300781 342.25 319.300781 340.148438 C 319.300781 338.050781 318.851562 336.25 317.898438 334.699219 C 316.949219 333.25 315.851562 332.5 314.550781 332.5 C 313.949219 332.5 313.398438 332.648438 312.898438 333 C 312.25 333.351562 311.699219 333.898438 311.25 334.648438 C 311.148438 334.699219 311.101562 334.800781 311.101562 334.851562 Z M 311.101562 334.851562 "/>
<path style=" stroke:none;fill-rule:nonzero;fill:rgb(20%,20%,20%);fill-opacity:1;" d="M 227.449219 438.148438 C 190.949219 438.148438 159.5 427.851562 133.75 407.449219 C 128.949219 403.648438 124.550781 399.648438 120.601562 395.550781 C 101.300781 375.601562 91.5 351.898438 91.5 325.148438 C 91.5 309.050781 94.25 293.851562 99.601562 279.949219 C 105.75 264.101562 115.101562 249.351562 127.449219 236.148438 C 107.25 205.699219 92.949219 176.300781 84.851562 148.75 C 74 111.851562 73.949219 77.050781 84.75 45.351562 C 85.199219 43.699219 85.75 42.148438 86.449219 40.648438 C 87.449219 38.601562 88.800781 36.699219 90.449219 35 C 92.300781 33.148438 94.351562 31.699219 96.550781 30.699219 C 99.398438 29.300781 102.550781 28.601562 105.851562 28.601562 C 107.699219 28.601562 109.550781 28.851562 111.351562 29.351562 C 112.800781 29.699219 114.199219 30.101562 115.5 30.601562 C 116.851562 31.101562 118.148438 31.75 119.300781 32.398438 C 140.050781 44.75 157.300781 65.101562 170.5 92.949219 C 183.050781 119.449219 192.398438 153.5 198.148438 194.199219 C 209.148438 191.648438 220.851562 190.351562 233 190.351562 C 244.25 190.351562 255.148438 191.449219 265.398438 193.648438 C 273.101562 151.398438 283.25 116.800781 295.601562 90.75 C 310.699219 58.898438 329.550781 38.648438 351.648438 30.601562 C 352.300781 30.351562 353 30.148438 353.648438 29.949219 C 354.199219 29.699219 354.75 29.550781 355.300781 29.398438 C 355.800781 29.25 356.351562 29.148438 356.851562 29.050781 C 358.148438 28.75 359.601562 28.648438 361.050781 28.648438 C 364.398438 28.648438 367.550781 29.351562 370.449219 30.75 C 372.550781 31.75 374.5 33.148438 376.351562 35 C 376.351562 35 376.398438 35.050781 376.398438 35.050781 C 378.398438 37.148438 379.949219 39.449219 381.050781 41.949219 C 381.050781 41.949219 381.050781 42 381.050781 42 C 381.398438 42.800781 381.699219 43.699219 381.898438 44.648438 C 392.550781 73.601562 392.800781 106.75 382.699219 143.199219 C 374.75 171.949219 360.148438 203.449219 339.25 236.898438 C 347.898438 246.351562 355.101562 256.699219 360.648438 267.648438 C 363.101562 272.449219 365.300781 277.5 367.199219 282.648438 C 371.898438 295.550781 374.25 309.898438 374.25 325.25 C 374.25 357.550781 361.25 384.25 335.550781 404.699219 C 310.101562 424.898438 276.851562 436.148438 236.601562 438.050781 C 233.550781 438.050781 230.5 438.148438 227.449219 438.148438 Z M 124.851562 391.351562 C 128.648438 395.25 132.851562 399.050781 137.449219 402.699219 C 164.199219 423.898438 197.449219 433.699219 236.398438 431.898438 C 275.351562 430.050781 307.449219 419.300781 331.898438 399.851562 C 356.050781 380.601562 368.351562 355.449219 368.351562 325.050781 C 368.351562 310.398438 366.101562 296.75 361.648438 284.5 C 359.851562 279.601562 357.75 274.800781 355.398438 270.199219 C 349.75 259.101562 342.351562 248.648438 333.398438 239.101562 C 333.398438 239.101562 333.398438 239.101562 333.398438 239.050781 C 330.898438 236.351562 328.199219 233.699219 325.449219 231.148438 C 323.648438 229.5 321.851562 227.949219 320.101562 226.5 C 307.75 216.300781 294.050781 208.550781 279.398438 203.550781 C 279.351562 203.550781 279.351562 203.550781 279.300781 203.5 C 275.351562 202.148438 271.300781 201 267.25 200.101562 C 267.25 200.101562 267.199219 200.101562 267.199219 200.101562 C 256.5 197.550781 245 196.25 233.101562 196.25 C 220.25 196.25 207.898438 197.75 196.5 200.699219 C 191.75 201.898438 187.101562 203.398438 182.601562 205.148438 C 182.601562 205.148438 182.601562 205.148438 182.550781 205.148438 C 168.851562 210.351562 156.050781 218 144.449219 227.949219 C 143.25 229 142 230.101562 140.800781 231.199219 C 138.300781 233.5 135.851562 235.949219 133.550781 238.398438 C 133.550781 238.398438 133.5 238.449219 133.5 238.449219 C 120.851562 251.550781 111.351562 266.199219 105.25 282 C 100.148438 295.199219 97.550781 309.699219 97.550781 325.050781 C 97.398438 350.25 106.648438 372.550781 124.851562 391.351562 Z M 325.851562 223.648438 C 327.050781 224.648438 328.25 225.75 329.449219 226.800781 C 331.398438 228.550781 333.300781 230.398438 335.101562 232.25 C 355.199219 199.800781 369.300781 169.25 377 141.449219 C 386.800781 106.199219 386.550781 74.199219 376.300781 46.449219 C 376.25 46.351562 376.25 46.25 376.199219 46.148438 C 376 45.449219 375.800781 44.800781 375.601562 44.199219 C 374.800781 42.351562 373.648438 40.648438 372.148438 39.101562 C 370.800781 37.800781 369.398438 36.75 367.949219 36.050781 C 365.851562 35.050781 363.601562 34.550781 361.148438 34.550781 C 360.050781 34.550781 359 34.648438 358.101562 34.851562 C 358 34.898438 357.851562 34.898438 357.75 34.898438 C 357.550781 34.898438 357.351562 34.949219 357.199219 35 C 357.148438 35 357.050781 35.050781 357 35.050781 C 356.648438 35.148438 356.351562 35.25 356.050781 35.398438 C 355.898438 35.449219 355.75 35.550781 355.601562 35.550781 C 355.050781 35.699219 354.5 35.898438 353.898438 36.101562 C 333.300781 43.601562 315.550781 62.800781 301.148438 93.199219 C 289 118.851562 279 153.050781 271.398438 194.898438 C 273.699219 195.449219 276 196.101562 278.25 196.800781 C 288.601562 153.699219 301.101562 120.300781 315.5 97.601562 C 319.800781 90.800781 324.351562 84.800781 329.050781 79.800781 C 330.699219 78 332.449219 76.351562 334.25 74.800781 C 334.351562 74.699219 334.449219 74.648438 334.550781 74.601562 C 337.699219 72.5 341.25 71.449219 345.148438 71.449219 C 350.5 71.449219 355.101562 73.351562 358.949219 77.148438 C 361.949219 80.199219 363.851562 83.75 364.550781 87.699219 C 364.550781 87.800781 364.550781 87.851562 364.601562 87.949219 C 364.699219 88.851562 364.75 89.800781 364.75 90.75 C 365.75 101.898438 365.449219 113.601562 363.800781 125.5 C 359.5 155.699219 346.800781 188.699219 325.851562 223.648438 Z M 90.550781 147 C 98.398438 173.648438 112.199219 202.101562 131.648438 231.648438 C 133.25 230 134.949219 228.398438 136.648438 226.851562 C 137.351562 226.25 138 225.648438 138.648438 225.050781 C 119.851562 187.648438 107.601562 156.25 102.25 131.601562 C 98.75 115.601562 98.101562 102.050781 100.25 91.25 C 101.050781 87.398438 101.949219 84.449219 103.101562 82.25 C 104 80.5 105.199219 78.800781 106.699219 77.300781 C 106.699219 77.300781 106.75 77.25 106.75 77.25 C 110.601562 73.5 115.25 71.601562 120.550781 71.601562 C 124.050781 71.601562 127.300781 72.449219 130.199219 74.101562 C 131.648438 74.898438 133.101562 76 134.398438 77.300781 C 136.449219 79.398438 137.898438 81 138.898438 82.25 C 143.351562 88.199219 147.550781 94.398438 151.351562 100.699219 C 168.5 129 179.449219 161.851562 183.949219 198.398438 C 186.699219 197.449219 189.5 196.550781 192.351562 195.75 C 186.648438 155.398438 177.5 121.699219 165.101562 95.601562 C 152.398438 68.851562 135.949219 49.351562 116.25 37.648438 C 115.398438 37.148438 114.398438 36.699219 113.300781 36.25 C 112.199219 35.800781 111.101562 35.5 109.898438 35.199219 C 109.851562 35.199219 109.800781 35.199219 109.75 35.148438 C 108.5 34.800781 107.148438 34.601562 105.800781 34.601562 C 103.351562 34.601562 101.148438 35.101562 99.101562 36.101562 C 99.101562 36.101562 99.050781 36.101562 99.050781 36.148438 C 97.5 36.851562 96.050781 37.898438 94.75 39.199219 C 93.550781 40.449219 92.550781 41.800781 91.851562 43.25 C 91.300781 44.398438 90.851562 45.601562 90.5 46.898438 C 90.5 47 90.449219 47.050781 90.449219 47.101562 C 79.949219 77.648438 80 111.25 90.550781 147 C 90.5 147 90.5 147 90.550781 147 Z M 111 81.449219 C 109.949219 82.550781 109.101562 83.75 108.449219 84.949219 C 107.601562 86.601562 106.800781 89.148438 106.148438 92.398438 C 104.148438 102.351562 104.851562 115.101562 108.148438 130.300781 C 113.351562 154.148438 125.199219 184.699219 143.398438 221.050781 C 154.101562 212.351562 165.75 205.449219 178.148438 200.5 C 173.851562 164.25 163.148438 131.699219 146.199219 103.75 C 142.5 97.601562 138.449219 91.601562 134.101562 85.851562 C 133.300781 84.851562 131.949219 83.351562 130.101562 81.449219 C 129.199219 80.550781 128.25 79.851562 127.25 79.300781 C 127.25 79.300781 127.199219 79.300781 127.199219 79.25 C 125.199219 78.101562 123.050781 77.550781 120.550781 77.550781 C 116.851562 77.550781 113.75 78.800781 111 81.449219 Z M 283.800781 198.851562 C 297.101562 203.75 309.648438 210.75 321.148438 219.800781 C 341.398438 185.851562 353.699219 153.851562 357.648438 124.699219 C 359.199219 113.199219 359.5 101.949219 358.550781 91.199219 C 358.550781 91.101562 358.550781 91 358.550781 90.949219 C 358.550781 90.199219 358.5 89.449219 358.449219 88.75 C 357.949219 86.050781 356.648438 83.648438 354.550781 81.5 C 351.898438 78.851562 348.75 77.601562 345 77.601562 C 342.351562 77.601562 340 78.25 337.851562 79.648438 C 336.300781 81 334.75 82.449219 333.300781 84.050781 C 328.851562 88.800781 324.550781 94.5 320.449219 101 C 306.351562 123.148438 294 156.101562 283.800781 198.851562 Z M 233.851562 399.300781 C 233.800781 399.300781 233.699219 399.300781 233.648438 399.300781 C 227.75 399.199219 222.148438 395.101562 216.898438 387.148438 C 216.101562 385.949219 216.300781 384.300781 217.351562 383.300781 C 218.398438 382.300781 220.050781 382.199219 221.199219 383.101562 C 223.949219 385.199219 226.601562 386.699219 229.199219 387.601562 L 229.199219 372.199219 C 225.648438 371.898438 222.449219 371.148438 219.601562 370 C 219.199219 369.851562 218.800781 369.648438 218.398438 369.449219 C 213.699219 367.300781 211.300781 364.398438 211.300781 360.75 C 211.300781 357.148438 213.699219 354.199219 218.398438 351.949219 C 218.449219 351.949219 218.5 351.898438 218.550781 351.898438 C 219.550781 351.5 220.648438 351.101562 221.699219 350.800781 C 224.949219 349.800781 228.699219 349.25 232.800781 349.25 C 238.300781 349.25 243.101562 350.148438 247.050781 351.949219 C 247.050781 351.949219 247.101562 351.949219 247.101562 352 C 248.5 352.699219 249.75 353.398438 250.75 354.148438 C 250.800781 354.199219 250.851562 354.199219 250.851562 354.25 C 253.648438 356.601562 254.25 359.101562 254.25 360.800781 C 254.25 362.5 253.800781 364.101562 252.949219 365.601562 C 252.898438 365.648438 252.898438 365.699219 252.851562 365.75 C 251.898438 367.199219 250.199219 368.5 247.601562 369.851562 C 247.601562 369.851562 247.550781 369.851562 247.550781 369.898438 C 245.300781 371 242.148438 371.699219 237.898438 372.101562 L 237.898438 388.199219 C 240.898438 387.5 243.898438 385.851562 246.800781 383.300781 C 247.949219 382.300781 249.648438 382.300781 250.800781 383.300781 C 251.949219 384.300781 252.101562 386 251.25 387.25 C 245.550781 395.351562 239.851562 399.300781 233.851562 399.300781 Z M 232.25 366.351562 L 234.851562 366.351562 C 235.398438 366.300781 235.898438 366.25 236.398438 366.199219 C 236.449219 366.199219 236.5 366.199219 236.601562 366.199219 C 241.398438 365.800781 243.851562 365.050781 245 364.5 C 247.101562 363.449219 247.75 362.75 247.898438 362.5 C 248.199219 361.949219 248.351562 361.398438 248.351562 360.800781 C 248.351562 360.601562 248.351562 359.898438 247.199219 358.898438 C 246.5 358.398438 245.648438 357.898438 244.648438 357.398438 C 241.449219 355.949219 237.5 355.25 232.898438 355.25 C 229.398438 355.25 226.300781 355.699219 223.601562 356.5 C 222.699219 356.75 221.851562 357.050781 221.050781 357.398438 C 219.648438 358.050781 217.449219 359.351562 217.449219 360.75 C 217.449219 362.148438 219.699219 363.398438 221.101562 364 C 221.148438 364 221.148438 364.050781 221.199219 364.050781 C 221.449219 364.148438 221.699219 364.300781 221.949219 364.351562 C 222 364.351562 222 364.351562 222.050781 364.398438 C 224.699219 365.5 227.800781 366.148438 231.300781 366.300781 L 232.25 366.300781 Z M 318.949219 361.5 C 318.699219 361.5 318.5 361.5 318.25 361.5 C 314.601562 361.25 311.449219 359.398438 308.898438 355.898438 C 308.898438 355.851562 308.851562 355.851562 308.851562 355.800781 C 306.601562 352.5 305.449219 348.550781 305.449219 344.148438 C 305.449219 340 306.449219 336.398438 308.449219 333.449219 C 308.601562 333.199219 308.75 332.949219 308.949219 332.699219 C 309.601562 331.75 310.351562 331.050781 311.199219 330.5 C 313.398438 328.699219 315.898438 327.851562 318.648438 328.050781 C 321.199219 328.199219 324.898438 329.300781 327.851562 333.699219 C 330.199219 337 331.398438 340.949219 331.398438 345.351562 C 331.398438 349.800781 330.199219 353.648438 327.75 356.800781 C 325.449219 359.898438 322.398438 361.5 318.949219 361.5 Z M 313.75 352.398438 C 315.199219 354.398438 316.800781 355.398438 318.601562 355.5 C 320.351562 355.601562 321.699219 354.898438 322.949219 353.25 C 322.949219 353.25 322.949219 353.199219 323 353.199219 C 324.601562 351.101562 325.398438 348.550781 325.398438 345.398438 C 325.398438 342.199219 324.601562 339.5 322.949219 337.199219 C 322.949219 337.199219 322.898438 337.148438 322.898438 337.148438 C 322.5 336.550781 322.050781 336.050781 321.648438 335.648438 C 322.101562 337.050781 322.351562 338.550781 322.351562 340.148438 C 322.351562 342.800781 321.75 345.148438 320.5 347.199219 C 318.550781 350.398438 316.148438 350.949219 314.5 350.898438 C 314.449219 350.898438 314.449219 350.898438 314.398438 350.898438 C 313.898438 350.851562 313.351562 350.75 312.75 350.550781 C 313 351.199219 313.351562 351.800781 313.75 352.398438 Z M 313.648438 336.449219 C 313.101562 337.449219 312.800781 338.648438 312.800781 340.148438 C 312.800781 341.699219 313.101562 342.949219 313.75 343.949219 C 314.101562 344.5 314.398438 344.851562 314.648438 344.898438 C 314.699219 344.851562 314.949219 344.648438 315.300781 344.101562 C 315.949219 343 316.25 341.699219 316.25 340.148438 C 316.25 338.601562 315.949219 337.351562 315.300781 336.300781 C 315 335.851562 314.699219 335.550781 314.5 335.5 C 314.398438 335.550781 314.300781 335.601562 314.25 335.648438 C 314.101562 335.75 313.898438 335.949219 313.75 336.25 C 313.75 336.300781 313.699219 336.351562 313.648438 336.449219 Z M 147.148438 361.5 C 146.949219 361.5 146.699219 361.5 146.5 361.5 C 144.050781 361.398438 141.75 360.5 139.800781 358.800781 C 138.851562 358 137.949219 357.050781 137.148438 355.898438 C 137.148438 355.898438 137.101562 355.851562 137.101562 355.851562 C 134.851562 352.550781 133.699219 348.601562 133.699219 344.199219 C 133.699219 340.050781 134.699219 336.449219 136.699219 333.5 C 136.851562 333.25 137 333 137.199219 332.75 C 137.851562 331.800781 138.601562 331.101562 139.449219 330.550781 C 141.648438 328.75 144.148438 327.898438 146.898438 328.101562 C 150.601562 328.351562 153.699219 330.25 156.101562 333.75 C 158.449219 337.050781 159.648438 340.949219 159.648438 345.398438 C 159.648438 349.75 158.5 353.5 156.199219 356.601562 C 156.148438 356.648438 156.148438 356.699219 156.101562 356.75 C 155.601562 357.5 155 358.148438 154.398438 358.699219 C 154.398438 358.699219 154.351562 358.75 154.351562 358.75 C 152.648438 360.199219 150.75 361.101562 148.699219 361.398438 C 148.148438 361.5 147.648438 361.5 147.148438 361.5 Z M 142 352.398438 C 142.550781 353.101562 143.101562 353.75 143.648438 354.199219 C 144.601562 355.050781 145.648438 355.449219 146.800781 355.5 C 147.148438 355.5 147.449219 355.5 147.75 355.449219 C 147.75 355.449219 147.800781 355.449219 147.800781 355.449219 C 148.699219 355.351562 149.5 354.949219 150.300781 354.25 C 150.550781 354 150.800781 353.75 151.050781 353.449219 C 151.101562 353.351562 151.199219 353.25 151.25 353.148438 C 152.851562 351.101562 153.601562 348.550781 153.601562 345.398438 C 153.601562 342.199219 152.800781 339.5 151.148438 337.199219 C 150.699219 336.550781 150.300781 336.050781 149.898438 335.648438 C 150.351562 337.050781 150.601562 338.550781 150.601562 340.148438 C 150.601562 342.800781 150 345.148438 148.75 347.199219 C 146.800781 350.398438 144.398438 350.949219 142.75 350.898438 C 142.699219 350.898438 142.699219 350.898438 142.648438 350.898438 C 142.148438 350.851562 141.601562 350.75 141 350.550781 C 141.25 351.199219 141.601562 351.800781 142 352.398438 Z M 150.800781 354.050781 Z M 151.199219 353.25 Z M 151.25 353.199219 C 151.25 353.25 151.199219 353.25 151.25 353.199219 C 151.199219 353.25 151.25 353.25 151.25 353.199219 Z M 141.949219 336.449219 C 141.398438 337.449219 141.101562 338.648438 141.101562 340.148438 C 141.101562 341.699219 141.398438 342.949219 142.050781 343.949219 C 142.398438 344.5 142.699219 344.851562 142.949219 344.898438 C 143 344.851562 143.25 344.648438 143.601562 344.101562 C 144.25 343 144.550781 341.699219 144.550781 340.148438 C 144.550781 338.601562 144.25 337.351562 143.601562 336.300781 C 143.300781 335.851562 143 335.550781 142.800781 335.5 C 142.699219 335.550781 142.648438 335.601562 142.550781 335.648438 C 142.398438 335.75 142.199219 335.949219 142.050781 336.25 C 142 336.300781 142 336.351562 141.949219 336.449219 Z M 141.949219 336.449219 "/>
</g>
</svg>
