<?xml version="1.0" encoding="UTF-8"?>
<svg xmlns="http://www.w3.org/2000/svg" xmlns:xlink="http://www.w3.org/1999/xlink" width="192pt" height="192pt" viewBox="0 0 192 192" version="1.1">
<g id="surface1">
<path style=" stroke:none;fill-rule:nonzero;fill:rgb(100%,87.058824%,36.078431%);fill-opacity:1;" d="M 38.363281 105.375 C 40.726562 99.28125 44.34375 93.710938 49.199219 88.667969 C 41.398438 77.023438 35.945312 65.945312 32.851562 55.445312 C 19.332031 69.882812 12.582031 87.148438 12.582031 107.195312 C 12.582031 128.210938 20.007812 146.136719 34.855469 160.988281 C 44.71875 170.851562 55.914062 177.429688 68.476562 180.75 L 46.011719 147.542969 C 38.945312 140.25 35.417969 131.699219 35.417969 121.914062 C 35.398438 115.988281 36.394531 110.476562 38.363281 105.375 M 142.480469 53.382812 C 142.480469 53.382812 142.460938 53.363281 142.460938 53.363281 C 139.445312 64.292969 133.894531 76.144531 125.851562 88.929688 C 129.300781 92.585938 132.113281 96.5625 134.289062 100.855469 L 160.21875 133.949219 C 162.75 127.070312 164.230469 119.757812 164.679688 112.011719 C 164.757812 110.417969 164.792969 108.824219 164.792969 107.210938 C 164.773438 86.195312 157.332031 68.25 142.480469 53.382812 M 88.667969 31.105469 C 79.5 31.105469 70.914062 32.511719 62.90625 35.34375 C 67.726562 45.507812 71.210938 58.460938 73.351562 74.210938 C 77.757812 73.070312 82.425781 72.507812 87.355469 72.507812 C 91.929688 72.507812 96.28125 72.992188 100.40625 73.96875 C 103.3125 57.636719 107.117188 44.476562 111.84375 34.5 C 104.605469 32.230469 96.882812 31.105469 88.667969 31.105469 Z M 88.667969 31.105469 "/>
<path style=" stroke:none;fill-rule:nonzero;fill:rgb(100%,77.647059%,23.529412%);fill-opacity:1;" d="M 134.269531 100.835938 C 135.1875 102.617188 135.992188 104.4375 136.667969 106.332031 C 138.394531 111.074219 139.238281 116.269531 139.238281 121.914062 C 139.238281 133.707031 134.550781 143.34375 125.15625 150.84375 C 115.761719 158.304688 103.613281 162.394531 88.6875 163.105469 C 73.742188 163.800781 61.125 160.070312 50.832031 151.914062 C 49.070312 150.507812 47.457031 149.0625 45.992188 147.5625 L 68.457031 180.789062 C 74.851562 182.476562 81.582031 183.320312 88.667969 183.320312 C 109.6875 183.320312 127.613281 175.894531 142.460938 161.023438 C 150.582031 152.925781 156.488281 143.886719 160.179688 133.949219 L 134.269531 100.835938 M 87.300781 138.507812 C 87.242188 138.507812 87.167969 138.507812 87.074219 138.507812 L 87.074219 146.792969 C 87.394531 146.832031 87.730469 146.851562 88.085938 146.851562 L 88.085938 138.523438 C 87.84375 138.507812 87.582031 138.507812 87.300781 138.507812 Z M 87.300781 138.507812 "/>
<path style=" stroke:none;fill-rule:nonzero;fill:rgb(100%,97.254902%,99.215686%);fill-opacity:1;" d="M 105.09375 75.300781 C 103.574219 74.773438 102.019531 74.324219 100.425781 73.96875 C 96.300781 72.992188 91.949219 72.507812 87.375 72.507812 C 82.425781 72.507812 77.757812 73.070312 73.367188 74.210938 C 71.53125 74.679688 69.75 75.242188 68.023438 75.917969 C 62.738281 77.925781 57.863281 80.832031 53.398438 84.65625 C 52.929688 85.050781 52.460938 85.460938 52.011719 85.894531 C 51.039062 86.792969 50.101562 87.710938 49.21875 88.667969 C 44.363281 93.710938 40.742188 99.28125 38.382812 105.375 C 36.414062 110.476562 35.417969 115.988281 35.417969 121.914062 C 35.417969 131.699219 38.945312 140.230469 46.011719 147.542969 C 47.476562 149.042969 49.085938 150.507812 50.851562 151.894531 C 61.144531 160.050781 73.761719 163.78125 88.707031 163.085938 C 103.613281 162.375 115.78125 158.289062 125.175781 150.824219 C 134.570312 143.34375 139.257812 133.707031 139.257812 121.894531 C 139.257812 116.25 138.394531 111.054688 136.6875 106.3125 C 135.992188 104.4375 135.207031 102.601562 134.289062 100.820312 C 132.113281 96.542969 129.300781 92.570312 125.851562 88.894531 C 124.894531 87.84375 123.863281 86.832031 122.792969 85.855469 C 122.101562 85.238281 121.425781 84.636719 120.75 84.074219 C 115.96875 80.175781 110.757812 77.230469 105.09375 75.300781 M 115.648438 129.074219 C 115.648438 127.6875 115.988281 126.523438 116.664062 125.585938 C 116.664062 125.550781 116.679688 125.53125 116.71875 125.511719 C 116.886719 125.230469 117.113281 125.007812 117.335938 124.894531 C 117.957031 124.367188 118.632812 124.125 119.398438 124.164062 C 120.449219 124.21875 121.3125 124.78125 122.007812 125.792969 C 122.757812 126.863281 123.132812 128.101562 123.132812 129.523438 C 123.132812 130.949219 122.757812 132.148438 122.007812 133.144531 C 121.3125 134.082031 120.449219 134.511719 119.398438 134.4375 C 118.367188 134.382812 117.488281 133.820312 116.71875 132.804688 C 116.007812 131.738281 115.648438 130.5 115.648438 129.074219 M 52.3125 125.492188 C 52.480469 125.210938 52.707031 124.988281 52.929688 124.875 C 53.550781 124.351562 54.226562 124.105469 54.992188 124.144531 C 56.023438 124.199219 56.886719 124.761719 57.601562 125.773438 C 58.351562 126.84375 58.726562 128.082031 58.726562 129.507812 C 58.726562 130.929688 58.351562 132.113281 57.601562 133.085938 C 57.601562 133.105469 57.601562 133.105469 57.601562 133.105469 C 57.449219 133.3125 57.300781 133.5 57.113281 133.667969 C 56.644531 134.082031 56.136719 134.324219 55.574219 134.398438 C 55.386719 134.4375 55.199219 134.4375 54.992188 134.417969 C 54.300781 134.382812 53.679688 134.136719 53.136719 133.667969 C 52.855469 133.425781 52.574219 133.125 52.3125 132.769531 C 51.582031 131.699219 51.226562 130.460938 51.226562 129.039062 C 51.226562 127.648438 51.5625 126.488281 52.238281 125.550781 C 52.257812 125.550781 52.273438 125.511719 52.3125 125.492188 M 87.300781 132.09375 C 89.210938 132.09375 90.84375 132.394531 92.195312 133.011719 C 92.664062 133.238281 93.054688 133.460938 93.375 133.707031 C 93.957031 134.195312 94.238281 134.71875 94.238281 135.300781 C 94.238281 135.730469 94.125 136.144531 93.898438 136.539062 C 93.65625 136.914062 93.148438 137.289062 92.363281 137.699219 C 91.59375 138.074219 90.414062 138.320312 88.800781 138.449219 C 88.574219 138.488281 88.351562 138.507812 88.105469 138.523438 L 88.105469 146.851562 C 88.351562 146.832031 88.574219 146.8125 88.800781 146.792969 C 90.355469 146.585938 91.855469 145.835938 93.300781 144.582031 C 89.492188 149.980469 85.820312 149.980469 82.273438 144.582031 C 83.773438 145.726562 85.238281 146.4375 86.664062 146.71875 C 86.792969 146.738281 86.945312 146.757812 87.09375 146.792969 L 87.09375 138.507812 C 86.945312 138.507812 86.8125 138.507812 86.664062 138.507812 C 85.199219 138.449219 83.90625 138.167969 82.78125 137.71875 C 82.648438 137.664062 82.519531 137.605469 82.386719 137.550781 C 81.039062 136.929688 80.363281 136.199219 80.363281 135.320312 C 80.363281 134.4375 81.039062 133.667969 82.386719 133.03125 C 82.742188 132.882812 83.101562 132.75 83.476562 132.636719 C 84.601562 132.28125 85.875 132.09375 87.300781 132.09375 M 62.886719 143.25 C 62.886719 144.957031 62.289062 146.398438 61.085938 147.601562 C 59.886719 148.800781 58.425781 149.398438 56.738281 149.398438 C 55.050781 149.398438 53.605469 148.800781 52.386719 147.601562 C 51.1875 146.398438 50.585938 144.9375 50.585938 143.25 C 50.585938 141.5625 51.1875 140.117188 52.386719 138.898438 C 53.605469 137.699219 55.070312 137.101562 56.738281 137.101562 C 58.445312 137.101562 59.886719 137.699219 61.085938 138.898438 C 62.289062 140.117188 62.886719 141.5625 62.886719 143.25 M 125.570312 143.25 C 125.570312 144.957031 124.96875 146.398438 123.769531 147.601562 C 122.570312 148.800781 121.105469 149.398438 119.417969 149.398438 C 117.730469 149.398438 116.289062 148.800781 115.070312 147.601562 C 113.867188 146.398438 113.269531 144.9375 113.269531 143.25 C 113.269531 141.5625 113.867188 140.117188 115.070312 138.898438 C 116.289062 137.699219 117.75 137.101562 119.417969 137.101562 C 121.125 137.101562 122.570312 137.699219 123.769531 138.898438 C 124.96875 140.117188 125.570312 141.5625 125.570312 143.25 M 135.414062 11.832031 C 134.90625 11.832031 134.457031 11.886719 134.023438 11.980469 C 133.855469 12 133.707031 12.039062 133.574219 12.074219 C 133.386719 12.132812 133.199219 12.1875 133.011719 12.261719 C 132.769531 12.320312 132.523438 12.414062 132.261719 12.507812 C 124.21875 15.429688 117.414062 22.761719 111.863281 34.5 C 107.136719 44.476562 103.332031 57.636719 100.425781 73.96875 C 102.019531 74.324219 103.574219 74.757812 105.09375 75.300781 C 109.011719 58.59375 113.71875 45.898438 119.175781 37.21875 C 120.769531 34.726562 122.417969 32.550781 124.144531 30.710938 C 124.742188 30.074219 125.363281 29.476562 126 28.929688 C 126.992188 28.273438 128.117188 27.9375 129.355469 27.9375 C 131.0625 27.9375 132.523438 28.539062 133.742188 29.738281 C 134.699219 30.710938 135.300781 31.835938 135.523438 33.09375 C 135.5625 33.414062 135.582031 33.75 135.582031 34.085938 C 135.957031 38.230469 135.84375 42.488281 135.242188 46.894531 C 133.6875 58.351562 128.851562 70.761719 120.75 84.09375 C 121.425781 84.65625 122.101562 85.257812 122.792969 85.875 C 123.863281 86.851562 124.894531 87.863281 125.851562 88.914062 C 133.894531 76.125 139.445312 64.273438 142.460938 53.34375 C 146.210938 39.824219 146.117188 27.710938 142.179688 17.023438 C 142.105469 16.707031 142.011719 16.40625 141.898438 16.125 C 141.542969 15.300781 141.039062 14.550781 140.382812 13.855469 C 139.78125 13.257812 139.144531 12.804688 138.488281 12.488281 C 137.511719 12.054688 136.519531 11.832031 135.414062 11.832031 M 42.882812 12.507812 C 42.429688 12.335938 41.960938 12.1875 41.457031 12.074219 C 40.875 11.90625 40.273438 11.832031 39.675781 11.832031 C 38.605469 11.832031 37.59375 12.054688 36.65625 12.507812 C 35.945312 12.824219 35.304688 13.292969 34.707031 13.875 C 34.164062 14.4375 33.730469 15.054688 33.414062 15.710938 C 33.167969 16.21875 32.980469 16.742188 32.832031 17.304688 C 28.820312 29.023438 28.835938 41.738281 32.851562 55.425781 C 35.945312 65.925781 41.398438 77.007812 49.199219 88.648438 C 50.082031 87.695312 51.019531 86.773438 51.992188 85.875 C 52.460938 85.460938 52.929688 85.050781 53.382812 84.636719 C 46.125 70.292969 41.476562 58.445312 39.429688 49.070312 C 38.15625 43.199219 37.914062 38.304688 38.679688 34.40625 C 38.960938 33.074219 39.28125 32.042969 39.636719 31.332031 C 39.917969 30.769531 40.3125 30.242188 40.800781 29.738281 C 42.039062 28.539062 43.5 27.9375 45.1875 27.9375 C 46.3125 27.9375 47.324219 28.199219 48.242188 28.726562 C 48.710938 28.988281 49.144531 29.324219 49.574219 29.738281 C 50.304688 30.46875 50.832031 31.070312 51.167969 31.5 C 52.820312 33.695312 54.355469 35.960938 55.761719 38.289062 C 62.363281 49.179688 66.429688 61.726562 67.988281 75.898438 C 69.710938 75.226562 71.511719 74.664062 73.332031 74.195312 C 71.175781 58.445312 67.6875 45.488281 62.886719 35.324219 C 58.011719 25.03125 51.75 17.625 44.117188 13.105469 C 43.761719 12.882812 43.332031 12.695312 42.882812 12.507812 Z M 42.882812 12.507812 "/>
<path style=" stroke:none;fill-rule:nonzero;fill:rgb(97.647059%,78.431373%,81.960784%);fill-opacity:1;" d="M 123.769531 147.601562 C 124.96875 146.398438 125.570312 144.9375 125.570312 143.25 C 125.570312 141.5625 124.96875 140.117188 123.769531 138.898438 C 122.570312 137.699219 121.105469 137.101562 119.417969 137.101562 C 117.730469 137.101562 116.289062 137.699219 115.070312 138.898438 C 113.867188 140.117188 113.269531 141.582031 113.269531 143.25 C 113.269531 144.957031 113.867188 146.398438 115.070312 147.601562 C 116.289062 148.800781 117.75 149.398438 119.417969 149.398438 C 121.105469 149.417969 122.550781 148.820312 123.769531 147.601562 M 61.085938 147.601562 C 62.289062 146.398438 62.886719 144.9375 62.886719 143.25 C 62.886719 141.5625 62.289062 140.117188 61.085938 138.898438 C 59.886719 137.699219 58.425781 137.101562 56.738281 137.101562 C 55.050781 137.101562 53.605469 137.699219 52.386719 138.898438 C 51.1875 140.117188 50.585938 141.582031 50.585938 143.25 C 50.585938 144.957031 51.1875 146.398438 52.386719 147.601562 C 53.605469 148.800781 55.070312 149.398438 56.738281 149.398438 C 58.425781 149.417969 59.867188 148.820312 61.085938 147.601562 Z M 61.085938 147.601562 "/>
<path style=" stroke:none;fill-rule:nonzero;fill:rgb(91.764706%,49.411765%,49.411765%);fill-opacity:1;" d="M 88.105469 146.832031 C 87.75 146.832031 87.414062 146.8125 87.09375 146.773438 C 86.925781 146.738281 86.792969 146.71875 86.664062 146.699219 C 85.238281 146.417969 83.773438 145.6875 82.273438 144.5625 C 85.820312 149.960938 89.492188 149.960938 93.300781 144.5625 C 91.855469 145.835938 90.355469 146.570312 88.800781 146.773438 C 88.574219 146.8125 88.332031 146.832031 88.105469 146.832031 M 51.789062 127.554688 C 51.789062 126.789062 51.957031 126.132812 52.273438 125.585938 C 51.601562 126.542969 51.261719 127.707031 51.261719 129.074219 C 51.261719 130.5 51.617188 131.757812 52.351562 132.804688 C 52.613281 133.164062 52.875 133.460938 53.175781 133.707031 C 53.71875 134.175781 54.335938 134.417969 55.03125 134.457031 C 55.238281 134.476562 55.425781 134.457031 55.613281 134.4375 C 56.175781 134.363281 56.679688 134.117188 57.148438 133.707031 C 57.320312 133.539062 57.488281 133.367188 57.636719 133.144531 C 57.636719 133.144531 57.636719 133.125 57.636719 133.125 C 58.386719 132.148438 58.761719 130.949219 58.761719 129.542969 C 58.761719 128.117188 58.386719 126.863281 57.636719 125.8125 C 56.925781 124.78125 56.0625 124.238281 55.03125 124.179688 C 54.261719 124.125 53.570312 124.367188 52.96875 124.914062 C 53.15625 124.78125 53.363281 124.726562 53.585938 124.726562 C 54.074219 124.726562 54.488281 125.007812 54.84375 125.550781 C 55.199219 126.132812 55.367188 126.804688 55.367188 127.59375 C 55.367188 128.382812 55.199219 129.074219 54.84375 129.65625 C 54.488281 130.238281 54.074219 130.519531 53.585938 130.5 C 53.101562 130.460938 52.6875 130.164062 52.332031 129.601562 C 51.957031 129.019531 51.789062 128.34375 51.789062 127.554688 M 116.175781 127.554688 C 116.175781 126.789062 116.34375 126.132812 116.664062 125.585938 C 115.988281 126.542969 115.648438 127.707031 115.648438 129.074219 C 115.648438 130.5 116.007812 131.757812 116.738281 132.804688 C 117.488281 133.835938 118.386719 134.382812 119.417969 134.4375 C 120.46875 134.492188 121.332031 134.0625 122.023438 133.144531 C 122.773438 132.167969 123.148438 130.96875 123.148438 129.523438 C 123.148438 128.101562 122.773438 126.84375 122.023438 125.792969 C 121.332031 124.761719 120.46875 124.21875 119.417969 124.164062 C 118.648438 124.105469 117.957031 124.351562 117.355469 124.894531 C 117.542969 124.761719 117.75 124.707031 117.976562 124.707031 C 118.460938 124.707031 118.875 124.988281 119.230469 125.53125 C 119.585938 126.113281 119.757812 126.789062 119.757812 127.574219 C 119.757812 128.363281 119.585938 129.054688 119.230469 129.636719 C 118.875 130.21875 118.460938 130.5 117.976562 130.480469 C 117.488281 130.445312 117.074219 130.144531 116.71875 129.582031 C 116.363281 129.019531 116.175781 128.34375 116.175781 127.554688 M 124.144531 30.710938 C 122.4375 32.550781 120.769531 34.726562 119.175781 37.21875 C 113.699219 45.898438 109.011719 58.59375 105.09375 75.300781 C 110.738281 77.25 115.949219 80.175781 120.730469 84.113281 C 128.851562 70.78125 133.667969 58.367188 135.226562 46.914062 C 135.824219 42.507812 135.9375 38.230469 135.5625 34.105469 C 135.5625 33.769531 135.542969 33.429688 135.507812 33.113281 C 135.28125 31.855469 134.679688 30.75 133.726562 29.757812 C 132.507812 28.554688 131.042969 27.957031 129.335938 27.957031 C 128.101562 27.957031 126.992188 28.292969 125.980469 28.949219 C 125.363281 29.476562 124.742188 30.074219 124.144531 30.710938 M 40.820312 29.757812 C 40.332031 30.261719 39.957031 30.789062 39.65625 31.351562 C 39.28125 32.082031 38.960938 33.09375 38.699219 34.425781 C 37.914062 38.34375 38.175781 43.21875 39.449219 49.085938 C 41.492188 58.460938 46.125 70.3125 53.398438 84.65625 C 57.863281 80.832031 62.738281 77.925781 68.023438 75.917969 C 66.46875 61.742188 62.382812 49.199219 55.800781 38.304688 C 54.394531 35.960938 52.855469 33.710938 51.207031 31.519531 C 50.867188 31.085938 50.34375 30.507812 49.613281 29.757812 C 49.199219 29.34375 48.75 29.007812 48.28125 28.742188 C 47.363281 28.21875 46.351562 27.957031 45.226562 27.957031 C 43.519531 27.957031 42.054688 28.554688 40.820312 29.757812 Z M 40.820312 29.757812 "/>
<path style=" stroke:none;fill-rule:nonzero;fill:rgb(20%,20%,20%);fill-opacity:1;" d="M 92.195312 133.011719 C 90.84375 132.394531 89.210938 132.09375 87.300781 132.09375 C 85.875 132.09375 84.601562 132.261719 83.476562 132.617188 C 83.101562 132.730469 82.742188 132.863281 82.386719 133.011719 C 81.039062 133.648438 80.363281 134.417969 80.363281 135.300781 C 80.363281 136.179688 81.039062 136.929688 82.386719 137.53125 C 82.519531 137.585938 82.648438 137.644531 82.78125 137.699219 C 83.90625 138.167969 85.199219 138.429688 86.664062 138.488281 C 86.8125 138.488281 86.945312 138.488281 87.09375 138.488281 C 87.167969 138.488281 87.242188 138.488281 87.320312 138.488281 C 87.601562 138.488281 87.863281 138.488281 88.105469 138.488281 C 88.351562 138.46875 88.574219 138.449219 88.800781 138.414062 C 90.414062 138.28125 91.59375 138.039062 92.363281 137.664062 C 93.148438 137.269531 93.65625 136.875 93.898438 136.5 C 94.125 136.105469 94.238281 135.710938 94.238281 135.261719 C 94.238281 134.679688 93.957031 134.15625 93.375 133.667969 C 93.054688 133.480469 92.664062 133.238281 92.195312 133.011719 Z M 92.195312 133.011719 "/>
<path style=" stroke:none;fill-rule:nonzero;fill:rgb(14.117647%,11.764706%,12.941176%);fill-opacity:1;" d="M 52.257812 125.570312 C 51.9375 126.113281 51.769531 126.769531 51.769531 127.539062 C 51.769531 128.324219 51.9375 129 52.292969 129.5625 C 52.648438 130.125 53.0625 130.425781 53.550781 130.460938 C 54.039062 130.480469 54.449219 130.199219 54.804688 129.617188 C 55.164062 129.019531 55.332031 128.34375 55.332031 127.554688 C 55.332031 126.769531 55.164062 126.09375 54.804688 125.511719 C 54.449219 124.96875 54.039062 124.6875 53.550781 124.6875 C 53.324219 124.6875 53.117188 124.742188 52.929688 124.875 C 52.6875 125.007812 52.480469 125.210938 52.3125 125.492188 C 52.273438 125.511719 52.257812 125.550781 52.257812 125.570312 M 116.664062 125.570312 C 116.34375 126.113281 116.175781 126.769531 116.175781 127.539062 C 116.175781 128.324219 116.34375 129 116.699219 129.5625 C 117.054688 130.125 117.46875 130.425781 117.957031 130.460938 C 118.445312 130.480469 118.855469 130.199219 119.210938 129.617188 C 119.570312 129.019531 119.738281 128.34375 119.738281 127.554688 C 119.738281 126.769531 119.570312 126.09375 119.210938 125.511719 C 118.855469 124.96875 118.445312 124.6875 117.957031 124.6875 C 117.730469 124.6875 117.523438 124.742188 117.335938 124.875 C 117.09375 125.007812 116.886719 125.210938 116.71875 125.492188 C 116.679688 125.511719 116.664062 125.550781 116.664062 125.570312 Z M 116.664062 125.570312 "/>
<path style=" stroke:none;fill-rule:nonzero;fill:rgb(20%,20%,20%);fill-opacity:1;" d="M 85.292969 164.304688 C 71.605469 164.304688 59.8125 160.445312 50.15625 152.792969 C 48.355469 151.367188 46.707031 149.867188 45.226562 148.332031 C 37.988281 140.851562 34.3125 131.960938 34.3125 121.929688 C 34.3125 115.894531 35.34375 110.195312 37.351562 104.980469 C 39.65625 99.039062 43.164062 93.507812 47.792969 88.554688 C 40.21875 77.136719 34.855469 66.113281 31.820312 55.78125 C 27.75 41.945312 27.730469 28.894531 31.78125 17.007812 C 31.949219 16.386719 32.15625 15.804688 32.417969 15.242188 C 32.792969 14.476562 33.300781 13.761719 33.917969 13.125 C 34.613281 12.429688 35.382812 11.886719 36.207031 11.511719 C 37.273438 10.988281 38.457031 10.726562 39.695312 10.726562 C 40.386719 10.726562 41.082031 10.820312 41.757812 11.007812 C 42.300781 11.136719 42.824219 11.289062 43.3125 11.476562 C 43.820312 11.664062 44.304688 11.90625 44.738281 12.148438 C 52.519531 16.78125 58.988281 24.414062 63.9375 34.855469 C 68.644531 44.792969 72.148438 57.5625 74.304688 72.824219 C 78.429688 71.867188 82.820312 71.382812 87.375 71.382812 C 91.59375 71.382812 95.679688 71.792969 99.523438 72.617188 C 102.414062 56.773438 106.21875 43.800781 110.851562 34.03125 C 116.511719 22.085938 123.582031 14.492188 131.867188 11.476562 C 132.113281 11.382812 132.375 11.304688 132.617188 11.230469 C 132.824219 11.136719 133.03125 11.082031 133.238281 11.023438 C 133.425781 10.96875 133.632812 10.929688 133.820312 10.894531 C 134.304688 10.78125 134.851562 10.742188 135.394531 10.742188 C 136.648438 10.742188 137.832031 11.007812 138.917969 11.53125 C 139.707031 11.90625 140.4375 12.429688 141.132812 13.125 C 141.132812 13.125 141.148438 13.144531 141.148438 13.144531 C 141.898438 13.929688 142.480469 14.792969 142.894531 15.730469 C 142.894531 15.730469 142.894531 15.75 142.894531 15.75 C 143.023438 16.050781 143.136719 16.386719 143.210938 16.742188 C 147.207031 27.601562 147.300781 40.03125 143.511719 53.699219 C 140.53125 64.480469 135.054688 76.292969 127.21875 88.835938 C 130.460938 92.382812 133.164062 96.261719 135.242188 100.367188 C 136.164062 102.167969 136.988281 104.0625 137.699219 105.992188 C 139.460938 110.832031 140.34375 116.210938 140.34375 121.96875 C 140.34375 134.082031 135.46875 144.09375 125.832031 151.761719 C 116.289062 159.335938 103.820312 163.554688 88.726562 164.269531 C 87.582031 164.269531 86.4375 164.304688 85.292969 164.304688 Z M 46.820312 146.757812 C 48.242188 148.21875 49.820312 149.644531 51.542969 151.011719 C 61.574219 158.960938 74.042969 162.636719 88.648438 161.960938 C 103.257812 161.269531 115.292969 157.238281 124.460938 149.945312 C 133.519531 142.726562 138.132812 133.292969 138.132812 121.894531 C 138.132812 116.398438 137.289062 111.28125 135.617188 106.6875 C 134.945312 104.851562 134.15625 103.050781 133.273438 101.324219 C 131.15625 97.164062 128.382812 93.242188 125.023438 89.664062 C 125.023438 89.664062 125.023438 89.664062 125.023438 89.644531 C 124.085938 88.632812 123.074219 87.636719 122.042969 86.679688 C 121.367188 86.0625 120.695312 85.480469 120.039062 84.9375 C 115.40625 81.113281 110.269531 78.207031 104.773438 76.332031 C 104.757812 76.332031 104.757812 76.332031 104.738281 76.3125 C 103.257812 75.804688 101.738281 75.375 100.21875 75.039062 C 100.21875 75.039062 100.199219 75.039062 100.199219 75.039062 C 96.1875 74.082031 91.875 73.59375 87.414062 73.59375 C 82.59375 73.59375 77.960938 74.15625 73.6875 75.261719 C 71.90625 75.710938 70.164062 76.273438 68.476562 76.929688 C 68.476562 76.929688 68.476562 76.929688 68.457031 76.929688 C 63.320312 78.882812 58.519531 81.75 54.167969 85.480469 C 53.71875 85.875 53.25 86.289062 52.800781 86.699219 C 51.863281 87.5625 50.945312 88.480469 50.082031 89.398438 C 50.082031 89.398438 50.0625 89.417969 50.0625 89.417969 C 45.320312 94.332031 41.757812 99.824219 39.46875 105.75 C 37.554688 110.699219 36.582031 116.136719 36.582031 121.894531 C 36.523438 131.34375 39.992188 139.707031 46.820312 146.757812 Z M 122.195312 83.867188 C 122.644531 84.242188 123.09375 84.65625 123.542969 85.050781 C 124.273438 85.707031 124.988281 86.398438 125.664062 87.09375 C 133.199219 74.925781 138.488281 63.46875 141.375 53.042969 C 145.050781 39.824219 144.957031 27.824219 141.113281 17.417969 C 141.09375 17.382812 141.09375 17.34375 141.074219 17.304688 C 141 17.042969 140.925781 16.800781 140.851562 16.574219 C 140.550781 15.882812 140.117188 15.242188 139.554688 14.664062 C 139.050781 14.175781 138.523438 13.78125 137.980469 13.519531 C 137.195312 13.144531 136.351562 12.957031 135.429688 12.957031 C 135.019531 12.957031 134.625 12.992188 134.289062 13.070312 C 134.25 13.085938 134.195312 13.085938 134.15625 13.085938 C 134.082031 13.085938 134.007812 13.105469 133.949219 13.125 C 133.929688 13.125 133.894531 13.144531 133.875 13.144531 C 133.742188 13.179688 133.632812 13.21875 133.519531 13.273438 C 133.460938 13.292969 133.40625 13.332031 133.351562 13.332031 C 133.144531 13.386719 132.9375 13.460938 132.710938 13.539062 C 124.988281 16.351562 118.332031 23.550781 112.929688 34.949219 C 108.375 44.570312 104.625 57.394531 101.773438 73.085938 C 102.636719 73.292969 103.5 73.539062 104.34375 73.800781 C 108.226562 57.636719 112.914062 45.113281 118.3125 36.601562 C 119.925781 34.050781 121.632812 31.800781 123.394531 29.925781 C 124.011719 29.25 124.667969 28.632812 125.34375 28.050781 C 125.382812 28.011719 125.417969 27.992188 125.457031 27.976562 C 126.636719 27.1875 127.96875 26.792969 129.429688 26.792969 C 131.4375 26.792969 133.164062 27.507812 134.605469 28.929688 C 135.730469 30.074219 136.445312 31.40625 136.707031 32.886719 C 136.707031 32.925781 136.707031 32.945312 136.726562 32.980469 C 136.761719 33.320312 136.78125 33.675781 136.78125 34.03125 C 137.15625 38.210938 137.042969 42.601562 136.425781 47.0625 C 134.8125 58.386719 130.050781 70.761719 122.195312 83.867188 Z M 33.957031 55.125 C 36.898438 65.117188 42.074219 75.789062 49.367188 86.867188 C 49.96875 86.25 50.605469 85.648438 51.242188 85.070312 C 51.507812 84.84375 51.75 84.617188 51.992188 84.394531 C 44.945312 70.367188 40.351562 58.59375 38.34375 49.351562 C 37.03125 43.351562 36.789062 38.269531 37.59375 34.21875 C 37.894531 32.773438 38.230469 31.667969 38.664062 30.84375 C 39 30.1875 39.449219 29.550781 40.011719 28.988281 C 40.011719 28.988281 40.03125 28.96875 40.03125 28.96875 C 41.476562 27.5625 43.21875 26.851562 45.207031 26.851562 C 46.519531 26.851562 47.738281 27.167969 48.824219 27.789062 C 49.367188 28.085938 49.914062 28.5 50.398438 28.988281 C 51.167969 29.773438 51.710938 30.375 52.085938 30.84375 C 53.757812 33.074219 55.332031 35.398438 56.757812 37.761719 C 63.1875 48.375 67.292969 60.695312 68.980469 74.398438 C 70.011719 74.042969 71.0625 73.707031 72.132812 73.40625 C 69.992188 58.273438 66.5625 45.636719 61.914062 35.851562 C 57.148438 25.820312 50.980469 18.507812 43.59375 14.117188 C 43.273438 13.929688 42.898438 13.761719 42.488281 13.59375 C 42.074219 13.425781 41.664062 13.3125 41.210938 13.199219 C 41.195312 13.199219 41.175781 13.199219 41.15625 13.179688 C 40.6875 13.050781 40.179688 12.976562 39.675781 12.976562 C 38.757812 12.976562 37.929688 13.164062 37.164062 13.539062 C 37.164062 13.539062 37.144531 13.539062 37.144531 13.554688 C 36.5625 13.820312 36.019531 14.210938 35.53125 14.699219 C 35.082031 15.167969 34.707031 15.675781 34.445312 16.21875 C 34.238281 16.648438 34.070312 17.101562 33.9375 17.585938 C 33.9375 17.625 33.917969 17.644531 33.917969 17.664062 C 29.980469 29.117188 30 41.71875 33.957031 55.125 C 33.9375 55.125 33.9375 55.125 33.957031 55.125 Z M 41.625 30.542969 C 41.230469 30.957031 40.914062 31.40625 40.667969 31.855469 C 40.351562 32.476562 40.050781 33.429688 39.804688 34.648438 C 39.054688 38.382812 39.320312 43.164062 40.554688 48.863281 C 42.507812 57.804688 46.949219 69.261719 53.773438 82.894531 C 57.789062 79.632812 62.15625 77.042969 66.804688 75.1875 C 65.195312 61.59375 61.179688 49.386719 54.824219 38.90625 C 53.4375 36.601562 51.917969 34.351562 50.289062 32.195312 C 49.988281 31.820312 49.480469 31.257812 48.789062 30.542969 C 48.449219 30.207031 48.09375 29.945312 47.71875 29.738281 C 47.71875 29.738281 47.699219 29.738281 47.699219 29.71875 C 46.949219 29.289062 46.144531 29.082031 45.207031 29.082031 C 43.820312 29.082031 42.65625 29.550781 41.625 30.542969 Z M 106.425781 74.570312 C 111.414062 76.40625 116.117188 79.03125 120.429688 82.425781 C 128.023438 69.695312 132.636719 57.695312 134.117188 46.761719 C 134.699219 42.449219 134.8125 38.230469 134.457031 34.199219 C 134.457031 34.164062 134.457031 34.125 134.457031 34.105469 C 134.457031 33.824219 134.4375 33.542969 134.417969 33.28125 C 134.230469 32.269531 133.742188 31.367188 132.957031 30.5625 C 131.960938 29.570312 130.78125 29.101562 129.375 29.101562 C 128.382812 29.101562 127.5 29.34375 126.695312 29.867188 C 126.113281 30.375 125.53125 30.917969 124.988281 31.519531 C 123.320312 33.300781 121.707031 35.4375 120.167969 37.875 C 114.882812 46.179688 110.25 58.539062 106.425781 74.570312 Z M 87.695312 149.738281 C 87.675781 149.738281 87.636719 149.738281 87.617188 149.738281 C 85.40625 149.699219 83.304688 148.164062 81.335938 145.179688 C 81.039062 144.730469 81.113281 144.113281 81.507812 143.738281 C 81.898438 143.363281 82.519531 143.324219 82.949219 143.664062 C 83.980469 144.449219 84.976562 145.011719 85.949219 145.351562 L 85.949219 139.574219 C 84.617188 139.460938 83.417969 139.179688 82.351562 138.75 C 82.199219 138.695312 82.050781 138.617188 81.898438 138.542969 C 80.136719 137.738281 79.238281 136.648438 79.238281 135.28125 C 79.238281 133.929688 80.136719 132.824219 81.898438 131.980469 C 81.917969 131.980469 81.9375 131.960938 81.957031 131.960938 C 82.332031 131.8125 82.742188 131.664062 83.136719 131.550781 C 84.355469 131.175781 85.761719 130.96875 87.300781 130.96875 C 89.363281 130.96875 91.164062 131.304688 92.644531 131.980469 C 92.644531 131.980469 92.664062 131.980469 92.664062 132 C 93.1875 132.261719 93.65625 132.523438 94.03125 132.804688 C 94.050781 132.824219 94.070312 132.824219 94.070312 132.84375 C 95.117188 133.726562 95.34375 134.664062 95.34375 135.300781 C 95.34375 135.9375 95.175781 136.539062 94.855469 137.101562 C 94.835938 137.117188 94.835938 137.136719 94.820312 137.15625 C 94.460938 137.699219 93.824219 138.1875 92.851562 138.695312 C 92.851562 138.695312 92.832031 138.695312 92.832031 138.710938 C 91.988281 139.125 90.804688 139.386719 89.210938 139.539062 L 89.210938 145.574219 C 90.335938 145.3125 91.460938 144.695312 92.550781 143.738281 C 92.980469 143.363281 93.617188 143.363281 94.050781 143.738281 C 94.480469 144.113281 94.539062 144.75 94.21875 145.21875 C 92.082031 148.257812 89.945312 149.738281 87.695312 149.738281 Z M 87.09375 137.382812 L 88.070312 137.382812 C 88.273438 137.363281 88.460938 137.34375 88.648438 137.324219 C 88.667969 137.324219 88.6875 137.324219 88.726562 137.324219 C 90.523438 137.175781 91.445312 136.894531 91.875 136.6875 C 92.664062 136.292969 92.90625 136.03125 92.960938 135.9375 C 93.074219 135.730469 93.132812 135.523438 93.132812 135.300781 C 93.132812 135.226562 93.132812 134.960938 92.699219 134.585938 C 92.4375 134.398438 92.117188 134.210938 91.742188 134.023438 C 90.542969 133.480469 89.0625 133.21875 87.335938 133.21875 C 86.023438 133.21875 84.863281 133.386719 83.851562 133.6875 C 83.511719 133.78125 83.195312 133.894531 82.894531 134.023438 C 82.367188 134.269531 81.542969 134.757812 81.542969 135.28125 C 81.542969 135.804688 82.386719 136.273438 82.914062 136.5 C 82.929688 136.5 82.929688 136.519531 82.949219 136.519531 C 83.042969 136.554688 83.136719 136.613281 83.230469 136.632812 C 83.25 136.632812 83.25 136.632812 83.269531 136.648438 C 84.261719 137.0625 85.425781 137.304688 86.738281 137.363281 L 87.09375 137.363281 Z M 119.605469 135.5625 C 119.511719 135.5625 119.4375 135.5625 119.34375 135.5625 C 117.976562 135.46875 116.792969 134.773438 115.835938 133.460938 C 115.835938 133.445312 115.820312 133.445312 115.820312 133.425781 C 114.976562 132.1875 114.542969 130.707031 114.542969 129.054688 C 114.542969 127.5 114.917969 126.148438 115.667969 125.042969 C 115.726562 124.949219 115.78125 124.855469 115.855469 124.761719 C 116.101562 124.40625 116.382812 124.144531 116.699219 123.9375 C 117.523438 123.261719 118.460938 122.945312 119.492188 123.019531 C 120.449219 123.074219 121.835938 123.488281 122.945312 125.136719 C 123.824219 126.375 124.273438 127.855469 124.273438 129.507812 C 124.273438 131.175781 123.824219 132.617188 122.90625 133.800781 C 122.042969 134.960938 120.898438 135.5625 119.605469 135.5625 Z M 117.65625 132.148438 C 118.199219 132.898438 118.800781 133.273438 119.476562 133.3125 C 120.132812 133.351562 120.636719 133.085938 121.105469 132.46875 C 121.105469 132.46875 121.105469 132.449219 121.125 132.449219 C 121.726562 131.664062 122.023438 130.707031 122.023438 129.523438 C 122.023438 128.324219 121.726562 127.3125 121.105469 126.449219 C 121.105469 126.449219 121.085938 126.429688 121.085938 126.429688 C 120.9375 126.207031 120.769531 126.019531 120.617188 125.867188 C 120.789062 126.394531 120.882812 126.957031 120.882812 127.554688 C 120.882812 128.550781 120.65625 129.429688 120.1875 130.199219 C 119.457031 131.398438 118.554688 131.605469 117.9375 131.585938 C 117.917969 131.585938 117.917969 131.585938 117.898438 131.585938 C 117.710938 131.570312 117.507812 131.53125 117.28125 131.457031 C 117.375 131.699219 117.507812 131.925781 117.65625 132.148438 Z M 117.617188 126.167969 C 117.414062 126.542969 117.300781 126.992188 117.300781 127.554688 C 117.300781 128.136719 117.414062 128.605469 117.65625 128.980469 C 117.789062 129.1875 117.898438 129.320312 117.992188 129.335938 C 118.011719 129.320312 118.105469 129.242188 118.238281 129.039062 C 118.480469 128.625 118.59375 128.136719 118.59375 127.554688 C 118.59375 126.976562 118.480469 126.507812 118.238281 126.113281 C 118.125 125.945312 118.011719 125.832031 117.9375 125.8125 C 117.898438 125.832031 117.863281 125.851562 117.84375 125.867188 C 117.789062 125.90625 117.710938 125.980469 117.65625 126.09375 C 117.65625 126.113281 117.636719 126.132812 117.617188 126.167969 Z M 55.179688 135.5625 C 55.105469 135.5625 55.011719 135.5625 54.9375 135.5625 C 54.019531 135.523438 53.15625 135.1875 52.425781 134.550781 C 52.070312 134.25 51.730469 133.894531 51.429688 133.460938 C 51.429688 133.460938 51.414062 133.445312 51.414062 133.445312 C 50.570312 132.207031 50.136719 130.726562 50.136719 129.074219 C 50.136719 127.519531 50.511719 126.167969 51.261719 125.0625 C 51.320312 124.96875 51.375 124.875 51.449219 124.78125 C 51.695312 124.425781 51.976562 124.164062 52.292969 123.957031 C 53.117188 123.28125 54.054688 122.960938 55.085938 123.039062 C 56.476562 123.132812 57.636719 123.84375 58.539062 125.15625 C 59.417969 126.394531 59.867188 127.855469 59.867188 129.523438 C 59.867188 131.15625 59.4375 132.5625 58.574219 133.726562 C 58.554688 133.742188 58.554688 133.761719 58.539062 133.78125 C 58.351562 134.0625 58.125 134.304688 57.898438 134.511719 C 57.898438 134.511719 57.882812 134.53125 57.882812 134.53125 C 57.242188 135.074219 56.53125 135.414062 55.761719 135.523438 C 55.554688 135.5625 55.367188 135.5625 55.179688 135.5625 Z M 53.25 132.148438 C 53.457031 132.414062 53.664062 132.65625 53.867188 132.824219 C 54.226562 133.144531 54.617188 133.292969 55.050781 133.3125 C 55.179688 133.3125 55.292969 133.3125 55.40625 133.292969 C 55.40625 133.292969 55.425781 133.292969 55.425781 133.292969 C 55.761719 133.257812 56.0625 133.105469 56.363281 132.84375 C 56.457031 132.75 56.550781 132.65625 56.644531 132.542969 C 56.664062 132.507812 56.699219 132.46875 56.71875 132.429688 C 57.320312 131.664062 57.601562 130.707031 57.601562 129.523438 C 57.601562 128.324219 57.300781 127.3125 56.679688 126.449219 C 56.511719 126.207031 56.363281 126.019531 56.210938 125.867188 C 56.382812 126.394531 56.476562 126.957031 56.476562 127.554688 C 56.476562 128.550781 56.25 129.429688 55.78125 130.199219 C 55.050781 131.398438 54.148438 131.605469 53.53125 131.585938 C 53.511719 131.585938 53.511719 131.585938 53.492188 131.585938 C 53.304688 131.570312 53.101562 131.53125 52.875 131.457031 C 52.96875 131.699219 53.101562 131.925781 53.25 132.148438 Z M 56.550781 132.769531 Z M 56.699219 132.46875 Z M 56.71875 132.449219 C 56.71875 132.46875 56.699219 132.46875 56.71875 132.449219 C 56.699219 132.46875 56.71875 132.46875 56.71875 132.449219 Z M 53.230469 126.167969 C 53.023438 126.542969 52.914062 126.992188 52.914062 127.554688 C 52.914062 128.136719 53.023438 128.605469 53.269531 128.980469 C 53.398438 129.1875 53.511719 129.320312 53.605469 129.335938 C 53.625 129.320312 53.71875 129.242188 53.851562 129.039062 C 54.09375 128.625 54.207031 128.136719 54.207031 127.554688 C 54.207031 126.976562 54.09375 126.507812 53.851562 126.113281 C 53.738281 125.945312 53.625 125.832031 53.550781 125.8125 C 53.511719 125.832031 53.492188 125.851562 53.457031 125.867188 C 53.398438 125.90625 53.324219 125.980469 53.269531 126.09375 C 53.25 126.113281 53.25 126.132812 53.230469 126.167969 Z M 53.230469 126.167969 "/>
</g>
</svg>
