<svg version="1.1" id="图层_1" xmlns="http://www.w3.org/2000/svg" xmlns:xlink="http://www.w3.org/1999/xlink" x="0px" y="0px" viewBox="0 0 1024 1024" style="font-size: 32px;" xml:space="preserve" width="32" height="32">
<style type="text/css">
	.st0{fill:#FDC346;}
	.st1{fill:#FF4397;}
	.st2{fill:#7FAB52;}
	.st3{fill:#660D83;}
	.st4{fill:#579157;}
	.st5{fill:#FF7459;}
	.st6{fill:#7BAD54;}
	.st7{fill:#2D5D5F;}
	.st8{fill:#A4C25E;}
	.st9{fill:#45A1E0;}
	.st10{fill:#79CBFF;}
	.st11{fill:#F57455;}
	.st12{fill:#79CCFF;}
	.st13{fill:#43A2E2;}
	.st14{fill:#FF7558;}
	.st15{fill:#FED049;}
	.st16{fill:#47A1DD;}
	.st17{fill:#FEE48F;}
	.st18{fill:#FF755B;}
	.st19{fill:#F8AF50;}
	.st20{fill:#FF745B;}
	.st21{fill:#FECE46;}
	.st22{fill:#FF9355;}
	.st23{fill:#6FA954;}
	.st24{fill:#FCCD4B;}
</style>
<g transform="matrix( 1, 0, 0, 1, 0,0) ">
	<g>
		<g id="Layer0_27_FILL">
			<path class="st21" d="M963.9,849.1c3.7-19-13.3-39.2-51.1-60.6H338.9H189.2c-37.9,9.1-57.7,29.3-59.4,60.6H963.9z"></path>
			<path class="st8" d="M521.9,382.2c0-19.3-6.9-35.9-20.7-49.7c-12.7-12.7-27.9-19.5-45.6-20.4c1.1-1.1,2.1-2.3,3.1-3.6
				c15.2-18.9,22.8-40.8,22.8-65.8v-0.2c0-29.3-10.4-54.3-31.1-75.1c-20.8-20.8-45.8-31.1-75.1-31.1H375
				c-29.3,0-54.3,10.4-75.1,31.1c-19,19-29.2,41.4-30.9,67.5c-33.9,0-62.7,11.7-86.3,35.2c-21.5,21.7-33.2,47.4-34.9,77.2
				c-0.1,1.3-0.2,2.7-0.2,4c0,1.4,0.1,2.7,0.2,4c1,16.7,5,32.1,12.1,46.1c-16.8,5.8-32.1,15.6-45.9,29.2
				c-23.6,23.8-35.4,52.4-35.4,85.8c0,33.4,11.8,61.9,35.4,85.6c23.8,23.8,52.4,35.6,85.8,35.6c22.7,0,43.2-5.5,61.3-16.6
				c2.3,2.6,4.7,5.2,7.1,7.6c20.3,20.3,43.5,33.4,69.6,39.4l-0.5-41.1l-0.7-86.7l-109.6-91.5l109.6,91.5l-0.7-91.7l-0.7-91.3
				l0.7,91.3l94.3-96l-94.3,96l0.7,91.7l0.7,86.7l102.4-98.6l-102.4,98.6l0.5,41.1c11.2,2.7,23,4,35.4,4c41,0,76-14.5,105-43.5
				c29-29,43.5-64,43.5-105c0-32.5-9.1-61.1-27.3-86c2.3-1.8,4.5-3.8,6.7-5.9C515,418,521.9,401.5,521.9,382.2z"></path>
			<path class="st5" d="M677.7,186.4c-7.9,7.9-14.3,16.5-19.2,25.7c-7.9,14.8-11.9,31.3-11.9,49.4v0.2c0,24.1,7,45.2,20.9,63.4
				c3.1,4.1,6.5,7.9,10.2,11.6c6.7,6.7,13.8,12.3,21.4,16.9c15.9,9.5,33.8,14.3,53.7,14.3h0.2c22,0,41.6-5.9,58.7-17.6
				c5.7-3.8,11.2-8.4,16.4-13.5c6.2-6.2,11.4-12.8,15.7-19.7c10.3-16.3,15.4-34.8,15.4-55.4v-0.2c0-20.3-5-38.5-15-54.7
				c-4.4-7.2-9.8-14-16.2-20.4c-7.8-7.8-16.2-14.1-25.2-19c-15-8.1-31.6-12.1-49.9-12.1h-0.2c-24.6,0-46.1,7.3-64.6,21.9
				C684.6,179.9,681.1,183,677.7,186.4z"></path>
		</g>
	</g>
	<g>
		<path class="st3" d="M963.9,858.1H129.7c-2.5,0-4.8-1-6.5-2.8s-2.6-4.2-2.5-6.7c1-17.8,7.2-32.8,18.7-44.5
			c11.1-11.3,27.1-19.5,47.6-24.4c0.7-0.2,1.4-0.2,2.1-0.2h140.6L329,675.1c-24.9-7.1-47.5-20.6-67-40.2c-0.8-0.8-1.6-1.7-2.5-2.5
			c-17.9,9.4-38,14.2-59.6,14.2c-35.7,0-66.8-12.9-92.2-38.3c-25.2-25.2-38-56.2-38-91.9c0-35.7,12.8-66.7,38-92.1
			c12.2-12.1,25.6-21.4,40.2-27.7c-5.2-12.7-8.2-26.3-9.1-40.6c-0.1-1.5-0.2-3-0.3-4.4c0-0.2,0-0.4,0-0.5c0-1.5,0.1-2.9,0.3-4.4
			c1.9-31.9,14.5-59.8,37.5-82.9c23.4-23.2,51.7-35.8,84.5-37.5c3.3-24.8,14.3-46.7,32.7-65.2c22.4-22.4,49.8-33.8,81.5-33.8h0.2
			c31.6,0,59.1,11.4,81.5,33.8c22.4,22.4,33.8,49.8,33.8,81.5v0.2c0,23.3-6.2,44.4-18.5,62.9c13.3,3.4,25.3,10.3,35.6,20.6
			c15.5,15.5,23.3,34.3,23.3,56c0,21.7-7.8,40.5-23.3,55.8c-0.3,0.3-0.7,0.7-1,1c16.1,24.8,24.3,53.2,24.3,84.6
			c0,43.3-15.5,80.8-46.1,111.4c-30.6,30.6-68.1,46.1-111.4,46.1c-9,0-17.8-0.7-26.3-2l0.8,100.4h565c1.6,0,3.1,0.4,4.4,1.2
			c41.9,23.8,60,46.7,55.5,70.1C971.9,855.1,968.2,858.1,963.9,858.1z M140,840.1h814.9c-3.3-15.5-24.9-31.2-44.5-42.6H190.2
			C161.1,804.7,144.6,818.7,140,840.1z M346.9,660.8c8.5,1.5,17.4,2.3,26.5,2.3c38.9,0,71.2-13.4,98.7-40.9
			c27.5-27.5,40.9-59.8,40.9-98.7c0-30.4-8.6-57.5-25.5-80.7c-2.8-3.9-2.1-9.3,1.6-12.3c2-1.6,3.9-3.4,5.8-5.3c0,0,0,0,0.1-0.1
			c12.1-12,18-26.1,18-43c0-17-5.9-31.2-18-43.3c-11.2-11.2-24.2-17-39.7-17.7c-3.5-0.2-6.5-2.3-7.9-5.5c-1.4-3.2-0.8-6.9,1.5-9.5
			c1-1.1,1.9-2.3,2.8-3.4c14-17.4,20.8-37.1,20.8-60.2v-0.2c0-27.1-9.3-49.6-28.5-68.7c-19.2-19.2-41.7-28.5-68.7-28.5H375
			c-27.1,0-49.6,9.3-68.7,28.5c-17.5,17.5-26.8,37.7-28.3,61.8c-0.3,4.7-4.2,8.4-9,8.4c-0.1,0-0.2,0-0.4,0
			c-31.6,0-57.6,10.6-79.6,32.4c-20.1,20.2-30.7,43.6-32.3,71.4c0,0.1,0,0.2,0,0.3c-0.1,1.1-0.2,2.2-0.2,3.3c0,1.1,0.1,2.2,0.2,3.3
			c0,0.1,0,0.2,0,0.2c0.9,15.4,4.7,29.7,11.3,42.7c1.2,2.3,1.3,5.1,0.3,7.5c-1,2.4-3,4.3-5.4,5.1c-15.5,5.3-29.9,14.4-42.5,27
			c-22,22.2-32.8,48.2-32.8,79.4c0,31.2,10.7,57.1,32.8,79.2c22.2,22.2,48.2,33,79.4,33c21,0,40.1-5.1,56.8-15.2
			c3.7-2.3,8.6-1.5,11.4,1.8c2.1,2.4,4.3,4.8,6.6,7.1c16,16,34.2,27.4,54.2,34l-0.3-29.3l-0.7-82.6l-106.5-88.8
			c-3.8-3.2-4.3-8.9-1.1-12.7c3.2-3.8,8.9-4.3,12.7-1.1l94.7,79l-0.7-72.1c0,0,0,0,0,0l-0.7-91.4c0-5,4-9,8.9-9.1c0,0,0,0,0.1,0
			c4.9,0,9,4,9,8.9l0.5,69.6l79.1-80.6c3.5-3.5,9.2-3.6,12.7-0.1c3.5,3.5,3.6,9.2,0.1,12.7l-91.7,93.5l0.8,87.9c0,0,0,0,0,0
			l0.5,65.8l87.2-84.1c3.6-3.4,9.3-3.3,12.7,0.2c3.4,3.6,3.3,9.3-0.2,12.7l-99.5,95.9L346.9,660.8z M916.3,746.4H489.8c-5,0-9-4-9-9
			s4-9,9-9h426.6c5,0,9,4,9,9S921.3,746.4,916.3,746.4z M767.8,682.3H578.9c-5,0-9-4-9-9s4-9,9-9h188.9c5,0,9,4,9,9
			S772.8,682.3,767.8,682.3z M815.3,618.1H646.6c-5,0-9-4-9-9s4-9,9-9h168.7c5,0,9,4,9,9S820.3,618.1,815.3,618.1z M755.9,487.4
			c-4.9,0-8.9-3.9-9-8.7l-2.9-102.1c-14.8-1-28.6-4.6-41.3-10.8l-41.1,75.3c-2.4,4.4-7.8,6-12.2,3.6s-6-7.8-3.6-12.2l41.4-75.9
			c-5.5-3.9-10.9-8.5-15.9-13.5c-1.8-1.8-3.6-3.7-5.2-5.6l-75.9,56.6c-4,3-9.6,2.1-12.6-1.8c-3-4-2.1-9.6,1.8-12.6l75.8-56.4
			c-10-15.5-15.8-32.9-17.3-51.9l-94.1,6.9c-5,0.4-9.3-3.4-9.6-8.3c-0.4-5,3.4-9.3,8.3-9.6l95.3-7c0.8-13.1,3.7-25.4,8.5-36.9
			l-80.7-36.4c-4.5-2-6.5-7.4-4.5-11.9c2-4.5,7.4-6.5,11.9-4.5l81.7,36.8c4.6-7.2,10.2-14.1,16.6-20.5c1.6-1.6,3.2-3.2,4.9-4.6
			l-51.4-78.1c-2.7-4.2-1.6-9.7,2.6-12.5c4.2-2.7,9.7-1.6,12.5,2.6l50.7,77c15.9-10.5,33.9-16.4,53.5-17.8l2.8-94.9
			c0.1-5,4.3-8.9,9.3-8.7c5,0.1,8.9,4.3,8.7,9.3l-2.8,94.4c13.3,0.9,25.8,4,37.4,9.1l48.5-80c2.6-4.2,8.1-5.6,12.4-3
			c4.3,2.6,5.6,8.1,3,12.4l-48.1,79.2c6.7,4.4,13.2,9.7,19.2,15.7c4.4,4.4,8.3,8.9,11.9,13.7l69.1-55c3.9-3.1,9.5-2.5,12.6,1.4
			c3.1,3.9,2.5,9.5-1.4,12.6L856,209.1c6.9,13.4,10.9,28.2,12,44l90.3,3.7c5,0.2,8.8,4.4,8.6,9.4c-0.2,5-4.4,8.9-9.4,8.6L868,271
			c-1.1,14.9-4.9,28.9-11.3,41.7l84.6,36.2c4.6,2,6.7,7.2,4.7,11.8c-2,4.6-7.2,6.7-11.8,4.7l-86.9-37.2c-3.8,5.2-8,10.2-12.7,14.9
			c-3.1,3.1-6.4,6.1-9.7,8.8l60.4,72c3.2,3.8,2.7,9.5-1.1,12.7c-3.8,3.2-9.5,2.7-12.7-1.1l-61.5-73.3c-14.5,8.3-30.5,13.1-47.8,14.4
			l2.8,101.6c0.1,5-3.8,9.1-8.7,9.2C756.1,487.4,756,487.4,755.9,487.4z M752.9,358.9h0.2c20,0,38-5.3,53.6-15.9
			c0.1,0,0.1-0.1,0.2-0.1c5.2-3.6,10.3-7.8,15-12.5c5.6-5.6,10.5-11.7,14.5-18c0.1-0.1,0.1-0.2,0.2-0.3
			c9.2-14.8,13.9-31.7,13.9-50.4c0,0,0-0.1,0-0.1v-0.2c0-18.5-4.5-35.2-13.5-49.9c0-0.1-0.1-0.1-0.1-0.2
			c-4.1-6.6-9.1-12.8-14.9-18.7c-7.1-7.1-14.9-13-23.1-17.4c0,0,0,0-0.1,0c-13.6-7.3-28.9-11-45.6-11h-0.2c-22.7,0-42,6.5-59.1,19.9
			c0,0,0,0,0,0c-3.3,2.6-6.5,5.4-9.6,8.5c-7.3,7.3-13.2,15.2-17.6,23.5c0,0,0,0.1-0.1,0.1c-7.2,13.4-10.8,28.6-10.8,45.1v0.2
			c0,0.1,0,0.1,0,0.2c0,22.2,6.3,41.2,19.2,58c0,0,0,0,0,0c0,0,0,0,0,0c2.8,3.7,5.9,7.2,9.3,10.6c6.1,6.1,12.7,11.3,19.6,15.5
			c0,0,0,0,0.1,0C718.2,354.5,734.7,358.9,752.9,358.9C752.8,358.9,752.9,358.9,752.9,358.9z"></path>
	</g>
</g>
</svg>