<svg version="1.1" xmlns="http://www.w3.org/2000/svg" xmlns:xlink="http://www.w3.org/1999/xlink" x="0px" y="0px" viewBox="0 0 1024 1024" style="font-size: 64px;" xml:space="preserve" width="64" height="64">
<g id="设计">
	<g>
		<g>
			<path style="fill:#FFE585;" d="M662.421,198.65C645.923,119.154,609.851,64,568,64c-37.949,0-71.146,45.349-89.307,113.072
				c-20.234,1.301-40.094,3.781-59.492,7.356C401.517,112.652,367.307,64,328,64c-53.057,0-96.831,88.632-103.2,203.144
				C126.52,339.052,64,447.135,64,568c0,216.496,200.576,392,448,392s448-175.504,448-392
				C960,397.677,835.853,252.732,662.421,198.65z"></path>
			<path style="fill:#6E6E96;" d="M935.598,410.193c-23.27-48.139-56.548-91.342-98.912-128.41
				c-42.248-36.966-91.416-65.979-146.139-86.232c-5.907-2.186-11.854-4.253-17.836-6.214
				c-5.117-22.718-11.903-43.738-20.222-62.295C630.796,78.651,600.791,52,568,52s-62.796,26.651-84.489,75.042
				c-5.35,11.934-10.06,24.895-14.107,38.661c-13.916,1.116-27.716,2.781-41.38,4.992c-4.352-15.635-9.543-30.287-15.535-43.654
				C390.796,78.651,360.791,52,328,52s-62.796,26.651-84.489,75.042c-16.528,36.87-27.015,83.449-30.354,133.787
				c-8.874,6.675-17.498,13.653-25.843,20.954c-42.363,37.068-75.642,80.271-98.912,128.41C64.248,460.163,52,513.257,52,568
				s12.248,107.837,36.402,157.807c23.27,48.139,56.548,91.342,98.912,128.41c42.248,36.966,91.416,65.979,146.139,86.232
				C390.022,961.385,450.094,972,512,972s121.978-10.615,178.547-31.551c54.723-20.253,103.892-49.266,146.139-86.232
				c42.363-37.068,75.642-80.271,98.912-128.41C959.752,675.837,972,622.743,972,568S959.752,460.163,935.598,410.193z
				 M505.411,136.86C522.749,98.183,545.562,76,568,76s45.251,22.183,62.589,60.86c6.058,13.514,11.242,28.484,15.499,44.558
				C602.855,169.85,557.933,164,512,164c-5.7,0-11.385,0.092-17.053,0.271C498.076,154.611,501.565,145.439,505.411,136.86z
				 M265.411,136.86C282.749,98.183,305.562,76,328,76s45.251,22.183,62.589,60.86c5.257,11.727,9.856,24.549,13.763,38.237
				c-24.14,5.086-47.811,11.91-70.899,20.454c-33.781,12.502-65.438,28.353-94.664,47.342
				C243.061,202.977,252.15,166.443,265.411,136.86z M512,948C271.589,948,76,777.533,76,568
				c0-108.334,52.288-206.223,136.019-275.51c7.881-6.521,16.042-12.787,24.462-18.786c49.922-35.568,109.022-61.696,173.684-75.232
				c7.788-1.63,15.656-3.079,23.599-4.339c9.659-1.531,19.427-2.785,29.295-3.75c8.279-0.81,16.628-1.415,25.039-1.813
				C496.013,188.196,503.98,188,512,188c48.99,0,96.118,7.081,140.11,20.126c8.729,2.589,17.334,5.415,25.806,8.465
				C836.274,273.595,948,409.638,948,568C948,777.533,752.411,948,512,948z"></path>
		</g>
		<circle style="fill:#6E6E96;" cx="376" cy="472" r="40"></circle>
		<circle style="fill:#6E6E96;" cx="808" cy="472" r="40"></circle>
		<ellipse style="opacity:0.5;fill:#FF99BB;" cx="288" cy="560" rx="80" ry="32"></ellipse>
		<ellipse style="opacity:0.5;fill:#FF99BB;" cx="872" cy="560" rx="56" ry="32"></ellipse>
		<g>
			<path style="fill:#6E6E96;" d="M606.205,812c-48.228,0-95.25-9.16-139.761-27.226c-46.082-18.704-87.44-46.181-122.929-81.669
				c-4.686-4.687-4.686-12.284,0-16.971c4.688-4.687,12.285-4.686,16.971,0C426.174,751.823,513.439,788,606.205,788
				c92.765,0,180.03-36.177,245.719-101.866c4.687-4.687,12.284-4.687,16.971,0c4.686,4.687,4.686,12.284,0,16.971
				c-35.488,35.488-76.848,62.966-122.929,81.669C701.455,802.84,654.433,812,606.205,812z"></path>
		</g>
	</g>
</g>
<g id="参考线_1_">
</g>
</svg>